<svg xmlns="http://www.w3.org/2000/svg" width="138" height="196" viewBox="0 0 138 196"><title>potloden_tile</title><path fill="none" stroke="#FFC91D" d="M54.96 64.05c.378.067.667.087.87.06l.427-.09c.08-.013.197.045.348.176.275.08.595.09.96.037.705-.05 1.296-.04 1.773.033.138.03.43.03.872 0 .38.028.612.144.697.35.16.313.177.914.054 1.81-.066.395-.037.98.09 1.75.11 2.132.166 3.35.165 3.65-.008.12.012.692.06 1.718.007.2.028.473.064.817-.07.417-.103.735-.098.956.12 1.452.12 2.595 0 3.43l-.09.864c0 .02.03.302.09.85.016.08-.026.388-.124.922l.002.843c.002.26-.01.86-.036 1.8-.013.762.005 1.365.054 1.81.012.4.002.68-.03.84l-.088.414c.014.08.065.214.152.4.014.383-.007.973-.063 1.77.058 1.73.06 2.832.008 3.31-.014.2.007.47.063.816l-.002.48c-.027.1-.077.236-.15.412l.183 1.696c.005.803.02 2.007.05 3.613.032.964.042 1.536.03 1.716l-.068.956c-.027.398-.02.72.023.963.03.142.033.394.008.754l-.044 1.048c-.028.4-.03 1-.007 1.805-.013.2-.014.49 0 .87.015.363-.026.652-.12.866-.072.155-.092.294-.06.417.013.1.043.245.09.426.028.182.03.453.004.81.01.123.02.265.03.425.012.12-.007.25-.057.387-.05.157-.09.435-.118.833-.034.2.017.473.153.823.006.2-.036.51-.125.924l-.09.414c-.006.1.045.224.155.372.015.08-.004.21-.057.387l.03.424-.13 1.884c-.046.638-.06 1.27-.043 1.892.01.12 0 .42-.033.9-.025.358-.016.66.027.903.088.447.086 1.048-.007 1.804-.05.418-.042 1.03.022 1.836-.007.38-.037.96-.09 1.737.01.142-.01.41-.058.81-.044.336-.043.608.003.81.092.41.077 1.05-.044 1.922-.008.4.012.982.058 1.747.012.403.002.693-.03.87-.004.06.005.212.028.454.008.18-.023.33-.09.445-.135.19-.395.334-.783.428-.53.123-.827.2-.89.238-.207.107-.494.187-.858.242-.488.086-.793.145-.915.176-.37.115-.964.164-1.785.146-.3-.022-.69-.017-1.173.008-.605.04-.998.062-1.18.07l-2.53.063c-.444.05-1.032-.002-1.763-.154-.55-.138-.837-.208-.857-.21-.332-.123-.56-.29-.687-.5-.053-.103-.074-.235-.063-.393.033-.18.053-.318.06-.418-.072-.407-.122-.7-.15-.883l.026-1.653c-.124-.81-.153-1.393-.088-1.75.08-.275.078-.545-.003-.812-.066-.205-.067-.485-.002-.842.034-.198.004-.762-.092-1.69-.05-.145-.08-.267-.094-.37l.115-.352.035-.478c.024-.06.018-.11-.02-.153l-.11-.13c-.034-.1-.015-.22.054-.356.05-.135.076-.243.082-.323-.09-.127-.135-.22-.13-.28.002-.04.027-.107.074-.204.045-.078.06-.146.044-.21-.158-.31-.21-.574-.155-.79.006-.08.064-.197.175-.35.068-.115.097-.234.085-.356-.013-.1-.064-.225-.154-.37-.09-.127-.143-.24-.156-.342.092-.174.14-.3.147-.38-.027-.182-.046-.335-.058-.456.004-.34-.017-.615-.063-.818-.082-.265-.09-.556-.03-.873.035-.22.046-.52.033-.902-.01-.44-.007-.752.005-.933.116-.793.114-1.335-.007-1.624-.034-.062-.025-.19.03-.388.035-.238.056-.387.06-.448-.013-.1.007-.24.06-.417.033-.198.044-.346.03-.448-.013-.384.008-.973.064-1.77l-.004-1.656c-.025-.22-.024-.523.003-.902.032-.458.043-.76.032-.9.053-.758.084-1.337.092-1.738-.028-.463-.028-.753 0-.872.09-.414.08-.685-.033-.813.084-.055.123-.173.115-.355-.008-.18-.01-.31-.003-.39l.122-.895c.026-.097.024-.358-.006-.78l.058-.84c-.015-1.504.004-2.635.057-3.393.053-.478.066-1.098.04-1.862-.01-1.023-.015-1.655-.02-1.896l-.03-.845c.045-.358.064-.627.057-.808.038-.84.042-1.46.01-1.864.058-.838.072-1.458.04-1.862-.016-.62-.002-1.262.045-1.92l.248-6.99c-.024-.803-.022-1.405.006-1.804.056-.798.078-1.398.066-1.8-.03-.743-.03-1.295-.005-1.654.056-.517.076-1.087.06-1.71-.033-.403-.033-.975 0-1.714.035-.8.045-1.37.03-1.712-.012-.422.032-1.04.128-1.856.12-.853.15-1.433.092-1.738-.12-.87.073-1.338.58-1.403.525-.064 1.135-.042 1.83.068.06.004.196.044.41.12.157.07.284.1.385.086.2-.006.495-.045.88-.12.98.03 1.572.03 1.775.005.18-.007.47.022.864.09z"/><path fill="#FFF" d="M52.2 48.098l-1.15 4.4c-.008.1.003.23.03.394.05.164.062.285.036.363-.037.238-.107.524-.21.858-.074.195-.184.478-.33.85-.49 1.548-.878 2.664-1.167 3.345-.073.176-.153.46-.24.856-.087.375-.177.66-.27.853l-.314 1.03c-.005.08-.044.208-.117.383-.053.177-.062.307-.028.39.067.185.6.312 1.597.382l1.73.18c.4.03 1 .04 1.803.037 1.157.08 1.806.115 1.947.105.344-.036.954-.024 1.832.038.78.034 1.383.006 1.81-.084.28-.002.73.02 1.35.063.18-.027.28-.16.298-.4.014-.2-.033-.393-.14-.58-.16-.293-.322-.705-.485-1.238-.178-.614-.32-1.035-.423-1.263-.19-.715-.374-1.25-.55-1.602-.085-.206-.246-.78-.48-1.718-.045-.223-.228-.767-.548-1.632-.273-.68-.405-1.24-.394-1.68-.012-.12-.063-.246-.154-.373-.127-.19-.2-.305-.216-.346l-.307-.772c-.05-.445-.096-.78-.14-1.002-.014-.082-.077-.196-.187-.344-.108-.168-.17-.293-.184-.374l-.292-.983c-.16-.292-.264-.53-.31-.713-.127-.49-.22-.757-.276-.8-.057-.045-.185-.074-.385-.088l-.39-.028c-.848-.2-1.49-.204-1.923-.014-.25.123-.445.34-.587.65-.05.138-.13.423-.24.856z"/><path fill="none" stroke="#FFF" d="M52.2 48.098c.11-.433.19-.718.24-.855.14-.31.336-.528.586-.65.434-.19 1.075-.186 1.923.013l.388.028c.2.013.328.042.385.087.057.045.15.312.275.802.047.183.15.42.31.713l.293.983c.015.08.077.206.185.374.11.15.173.262.187.344.044.223.09.557.14 1.002l.307.773c.015.042.088.158.215.347.09.127.142.25.154.372-.012.44.12 1 .393 1.68.32.865.503 1.41.547 1.632.235.94.396 1.512.482 1.718.175.353.36.887.55 1.602.103.228.244.65.422 1.263.163.533.325.945.485 1.237.106.188.153.38.14.58-.018.24-.118.374-.3.4-.618-.042-1.068-.064-1.35-.063-.426.09-1.03.117-1.81.083-.877-.062-1.487-.074-1.83-.038-.142.01-.79-.025-1.948-.106-.802.003-1.403-.01-1.802-.037l-1.732-.18c-.997-.07-1.53-.198-1.597-.384-.033-.083-.024-.213.028-.39.073-.175.112-.303.117-.382l.313-1.03c.094-.195.184-.48.27-.854.088-.395.168-.68.24-.856.29-.68.677-1.797 1.167-3.346.146-.37.256-.654.33-.85.103-.333.173-.62.21-.857.026-.078.014-.2-.035-.363-.028-.163-.04-.294-.032-.393l1.15-4.402z"/><path fill="#FFC91D" d="M53.21 44.8c.264.24.712.28 1.345.125.362-.015.596-.07.703-.162.128-.11.153-.33.076-.656.018-.26.01-.45-.02-.573l-.156-.793c-.084-.506-.21-.996-.378-1.468-.27-.74-.542-.99-.82-.75-.17.13-.286.36-.35.698-.032.178-.07.436-.114.774-.082.315-.166.81-.254 1.486-.193.75-.202 1.188-.032 1.32z"/><path fill="none" stroke="#FFC91D" d="M53.21 44.8c-.17-.132-.16-.572.032-1.32.088-.676.172-1.17.254-1.486.044-.338.082-.596.115-.774.064-.337.18-.57.35-.697.278-.242.55.008.82.75.167.47.294.96.378 1.468l.155.794c.032.123.04.314.02.573.078.326.053.545-.075.656-.107.093-.34.147-.703.162-.632.156-1.08.115-1.345-.124z"/><path fill="#FFC91D" d="M54.96 64.05c-.395-.068-.683-.097-.864-.09-.203.026-.794.025-1.774-.004-.386.074-.68.113-.88.12-.102.012-.23-.017-.385-.088-.215-.075-.353-.115-.412-.12-.694-.11-1.304-.13-1.83-.068-.506.066-.7.533-.58 1.403.06.305.03.884-.09 1.738-.098.816-.14 1.435-.13 1.857.016.342.006.912-.03 1.712-.032.738-.032 1.31 0 1.713.017.623-.003 1.193-.06 1.71-.024.36-.023.91.006 1.654.013.402-.01 1.002-.065 1.8-.028.4-.03 1-.006 1.804l-.25 6.99c-.045.66-.06 1.3-.043 1.922.032.404.017 1.024-.04 1.862.03.403.027 1.025-.01 1.864.006.18-.013.45-.058.808l.03.844c.004.24.01.873.018 1.896.027.764.014 1.384-.04 1.862-.053.758-.072 1.89-.057 3.394l-.057.838c.03.423.032.684.005.78l-.123.896c-.005.08-.004.21.003.39.008.182-.03.3-.115.354.112.128.123.398.034.813-.03.12-.03.41 0 .872-.01.4-.04.98-.093 1.738.01.14 0 .44-.032.9-.027.38-.028.68-.003.902l.003 1.655c-.056.797-.077 1.387-.063 1.77.012.1.002.25-.032.448-.052.177-.072.316-.06.417-.003.06-.024.21-.06.448-.054.197-.063.326-.028.39.12.288.123.83.007 1.623-.013.18-.014.492-.005.933.013.38.002.68-.033.9-.063.317-.053.608.028.873.046.203.067.477.063.817.013.12.032.274.06.455-.006.08-.055.207-.147.38.013.102.065.216.156.342.09.147.14.272.154.37.01.123-.017.24-.085.357-.112.153-.17.27-.176.35-.055.216-.003.48.155.79.015.063 0 .13-.045.21-.047.097-.072.164-.075.205-.004.058.04.15.13.278-.005.08-.032.188-.082.324-.07.136-.088.255-.055.357.02.02.056.063.11.128.04.043.045.093.02.153l-.033.48-.115.352c.013.1.045.224.095.368.095.93.126 1.493.092 1.69-.065.358-.064.637.002.843.08.267.082.537.003.812-.065.357-.036.94.088 1.75l-.025 1.652c.027.184.077.477.15.883-.008.1-.03.24-.06.418-.012.158.01.29.062.394.126.21.355.376.687.5.02 0 .304.07.856.21.73.152 1.32.203 1.764.154l2.53-.065c.18-.005.574-.028 1.178-.067.483-.025.874-.03 1.173-.008.822.018 1.417-.03 1.786-.146.122-.032.427-.09.914-.177.365-.055.65-.135.86-.24.062-.037.358-.116.888-.24.388-.094.648-.236.782-.427.068-.116.1-.264.09-.444-.022-.242-.032-.394-.027-.453.032-.18.042-.47.03-.872-.046-.765-.066-1.348-.058-1.748.12-.873.136-1.513.044-1.922-.047-.202-.048-.474-.004-.81.048-.4.067-.668.057-.81.054-.778.084-1.356.09-1.737-.063-.805-.07-1.417-.02-1.835.092-.755.094-1.358.005-1.805-.043-.244-.052-.545-.027-.904.034-.48.045-.78.034-.9-.017-.62-.003-1.253.042-1.89l.132-1.886-.03-.424c.05-.176.07-.306.056-.387-.11-.15-.16-.273-.154-.373l.09-.414c.088-.414.13-.723.124-.924-.136-.35-.187-.625-.153-.824.028-.398.068-.676.12-.833.05-.137.068-.266.056-.387-.01-.16-.02-.302-.03-.425.025-.356.024-.627-.004-.81-.047-.183-.077-.325-.09-.426-.032-.124-.012-.262.06-.417.094-.214.134-.502.12-.865-.014-.38-.014-.67 0-.87-.024-.805-.022-1.406.006-1.806l.044-1.048c.025-.36.022-.61-.008-.754-.043-.243-.05-.566-.023-.964l.068-.956c.013-.18.002-.752-.03-1.717-.028-1.605-.044-2.81-.048-3.612l-.182-1.697c.072-.175.122-.312.15-.41l.002-.48c-.056-.346-.077-.618-.063-.817.053-.477.05-1.58-.01-3.308.057-.798.078-1.388.064-1.77-.086-.187-.137-.32-.15-.402l.088-.414c.03-.16.04-.44.03-.84-.05-.445-.068-1.048-.055-1.81.026-.94.037-1.54.036-1.8l-.003-.843c.098-.534.14-.842.125-.923-.062-.546-.092-.83-.09-.85l.09-.864c.118-.834.118-1.978 0-3.43-.006-.22.027-.538.096-.954-.036-.344-.057-.616-.063-.817-.05-1.026-.07-1.6-.06-1.718 0-.3-.055-1.518-.167-3.65-.126-.77-.155-1.355-.088-1.75.123-.896.105-1.497-.054-1.81-.085-.206-.318-.322-.697-.35-.444.03-.735.03-.873 0-.476-.073-1.067-.084-1.773-.033-.365.054-.684.042-.96-.037-.15-.13-.267-.19-.348-.175l-.428.09c-.2.025-.49.004-.867-.06z"/><path fill="#231F20" d="M53.32 39.365c-.15.11-.427.36-.835.754l-.173.317.01.272c-.325.938-.514 1.637-.566 2.094l.048.605-.045.206-.174.32-.046.237.06.395c-.12.593-.233 1.056-.336 1.39-.228.385-.427.942-.6 1.672l.015.24-.17.68c-.32.86-.495 1.35-.523 1.468-.102.314-.257.805-.464 1.472l-.093.474.007.332-.243.464-.09.445c-.018.24-.066.476-.14.712.002.24-.047.518-.15.83-.053.198-.133.473-.238.827-.284.62-.455 1.21-.514 1.768l-.275.913-.307.52-.01.15.017.18-.145.352-.214.917c-.054.197-.178.54-.373 1.027l-.065.507-.29 1.123.08.607c-.095.495-.144.752-.146.772l.076.636c-.034.198-.056.657-.066 1.378l-.045.208.08.547.004.39-.085.355.072.246.03.424-.054.357c-.005.06.003.242.022.544l-.102 1.015c-.01.7.004 1.373.04 2.017l-.064.476c-.014.48-.073 1.188-.18 2.123l.006.36.075.217.082.126-.133 1.463.047.184-.092.475-.013.18c-.052.176-.103.624-.154 1.342l.04.303-.037.54-.13.56-.014.21.042.244-.06 1.71.08.157-.094.475c.018.322.012.552-.018.69l.045.214.075.216-.088 1.257.065.364-.033.48.04.302-.03.39.117.49-.013.208.04.304-.04.538-.082.325.033.395c0 .28-.038.69-.116 1.225l-.022.75c.08.266.125.5.13.7.07.166.1.298.094.398l-.096.505-.21.436.05.544.154.402-.036.508.01.272-.01.15.074.666-.027.39.142.552-.023.328-.08.295-.11.684.02.183-.06.416.073.665-.084.777.073.696-.024.33-.088.385-.117 1.676.03.452.085.486-.06.87-.043.176.06.425-.097.534.024.514-.195 1.068.047.605.097.338-.088.386.02.15.05.126.007.33.076.217-.006.51-.126.503.08.576.052.124.04.274c-.087.396-.115.794-.083 1.197l-.02.27.017.212-.12.832.04 1.176.105.64c.028.162.017.32-.034.478l.078 1.028-.01.15c-.053.176-.073.466-.06.867l-.08.718-.008 1.383c.03.423.053.666.07.727l.018.602-.157.95c.048.747.055 1.23.02 1.446l.042.245-.052.297.02.153.05.152-.064.478c.09.708.09 1.43 0 2.165l.036.335c-.026.078-.035.488-.026 1.23l.114.52-.092.445v.42l.046.215-.065.505.003.39.068.307-.003.902.116.488.012.272.047.183.138.16.816.81.205.075 1.878.22.353.116 1.02.043.467.213.24.017.788-.095.397-.093.355.086c.342-.015.846-.05 1.51-.105.627-.057.99-.1 1.093-.133l.926.093.577-.08.15.012.463-.18.242-.013c.12-.012.3-.01.54.008.47-.108 1.19-.247 2.165-.422l.456-.056.433-.18.333-.038.532-.293.222-.164.376-.216.13-.14.038-.12.002-.45c.09-.715.137-1.243.14-1.583-.028-.163-.042-.684-.04-1.566-.06-.306-.088-.76-.086-1.36l-.043-.243c.057-2.242.07-3.723.04-4.447l.015-.21-.04-.725.04-.57-.02-.12.01-.15-.03-.453.016-.21-.016-.212.05-.266-.045-.665.13-1.856c.006-.66.026-1.09.06-1.29-.05-.422-.05-1.305.005-2.644l-.087-.487.02-1.983.043-.208c-.005-.5.028-1.26.1-2.28l-.04-.272.054-.357c-.036-.926-.035-1.506 0-1.744l.01-.118c0-.863.014-1.353.042-1.47l-.104-1.09c-.012-.684.003-1.194.047-1.532-.038-.324-.056-.496-.054-.516.056-.517.08-1.297.073-2.34.013-1.04.037-1.822.074-2.34l-.037-.334.03-.87-.017-.18c.025-.36.032-.89.02-1.594-.028-.724-.03-1.255-.007-1.594-.046-.224-.034-.544.036-.96l-.01-.27.058-.418-.073-.246.056-.357-.034-.392.027-.39c-.06-.284-.082-.697-.065-1.237.02-.58.01-.99-.033-1.234.03-.72.067-1.25.11-1.586l-.056-.485-.1-.278c-.02-.603-.008-1.043.032-1.32l-.044-.245c.068-.396.087-.956.058-1.68l-.06-1.718.096-.956c-.143-.812-.122-1.983.066-3.514.035-.218.055-.497.058-.838-.022-.543-.032-.824-.03-.844.037-.54.03-1.16-.02-1.866-.018-.322.013-.91.093-1.768.05-.738.043-1.33-.026-1.776-.07-.446-.088-1.06-.053-1.838.043-.9.046-1.52.01-1.864l-.045-.214c.07-.455.08-.856.023-1.2l-.075-.217.04-1.02-.02-.122-.27-.44-.093-.397-.158-.31c-.06-.286-.2-.747-.416-1.383-.157-.613-.296-1.064-.416-1.353-.214-.957-.48-1.757-.795-2.4-.013-.102-.07-.307-.168-.614l-.132-.25c-.28-1.142-.543-1.993-.784-2.55l-.167-.644-.103-.248-.114-.52-.135-.22-.066-.335-.48-1.717-.082-.126-.323-1.406-.203-.556.01-.15c-.294-.66-.535-1.37-.723-2.125l.01-.15-.36-1.288-.012-.27c-.32-.886-.574-1.826-.765-2.822l-.336-.775-.36-.446-.117-.038-.055-.064-.022-.122-.113-.098c-.294-.1-.62-.164-.98-.19l-.794.215zm.92 1.057l.114.068.17.162.135.22.035.333.13.31.064.366c.085.207.235.78.45 1.716-.03.14-.04.268-.027.39l.106.638-.04.118-.096.083-.337.097-.39.003-.37.094-.388-.028-.533-.127-.114-.098-.05-.155.057-.808c.077-.236.14-.572.19-1.01.076-.495.14-.842.194-1.04l.025-.358.12-.442.27-.432.13-.112.15.012zm-2.23 8.625l.034-.48.398-1.384.104-.203.385-.334.095-.054c.93-.115 1.83-.073 2.697.13l.058.033.29 1.012.19.314c.136.332.3.844.492 1.54l.193.254c.063.245.12.6.166 1.064l.332.865.113.098.19.315.023.513c.128.47.33 1.166.606 2.087l.077.186.196.225.017.182.29 1.464c.068.166.225.498.47.996l.106.64c.16.29.35.735.568 1.332l.103.67.162.28.097.338.233.528.092.397.003.392-.128.112-1.5-.075-.334.066c-.64-.045-1.34-.044-2.107.003l-.118-.04c-1.945.005-3.406-.037-4.382-.126-.1.013-.45 0-1.05-.043-.752-.132-1.32-.182-1.703-.148-.434-.11-.75-.193-.945-.247l-.056-.064-.052-.123c.044-.337.18-.84.406-1.505.227-.666.363-1.168.406-1.505.206-.648.39-1.116.55-1.405l.078-.266c.234-.765.434-1.323.6-1.672.12-.312.3-.85.533-1.618l.166-.65-.12-.43c-.007-.2.04-.447.14-.74.105-.335.173-.59.205-.77l.07-.144c.285-.88.472-1.55.563-2.005zm6.068 15.16c.503-.025.933-.005 1.29.06l.303-.038.392-.004.35.145.387.058.055.064.077.186.113.97-.115 1.647.066.335-.012.18.065.365-.01.54.09.458-.028.39.123.82-.055.357c.073.386.11.99.114 1.812l-.02.27.038.333-.027.39.09.457-.124 1.314c.032.123.08.457.14 1.002l-.08.717.022.993-.045.208.018.18-.193 1.462.166.643c-.1.294-.147.662-.137 1.104-.018.26-.013.63.013 1.113-.114 1.055-.11 1.867.01 2.437l-.037.54.075.636-.09.474-.076.206-.006.09.13.31.038.303-.064.476.052.123.007.33-.084.356.028.452-.042.178.017.182.094.367-.017.24c.04.282.043.533.007.75l.04.274-.13 1.435.106.217c-.034.198-.054.487-.06.868l-.11.263-.003.06.122.4c-.023.318.003.66.078 1.026l-.02.27.042.273.03 1.295-.07.567.095.788-.036 1.8.038.305-.132 1.885.093.397-.062.446.047.185c-.028.4-.05 1-.066 1.8.043.524.047 1.327.01 2.407l-.043.208-.143.322-.045.206.19.706-.057.387.022.122.013.242.075.215-.012.18-.112.322-.01.57-.074.207-.043.176.02.15.106.22.034.363c-.098.553-.143.9-.133 1.042l-.08.295.05.125.082.125.02.123-.052.326.037.334-.096.504.04.725-.15 1.702.045.214.008.752-.058.387c0 .02 0 .282.006.784 0 .3.022.55.068.754l-.01.15c.06.585.038 1.466-.065 2.642l.048.183-.07.988.047.214c.006.2-.024.48-.09.836l.012.27-.095 1.348.114.52-.118 1.675.045.213-.045 1.08.064.366c.038.323.022.693-.047 1.11l.068.303-.01.15-.04.12-.165.228-.126.083-.588.23-.642.135c-.188.107-.394.184-.617.228-.445.07-.954.184-1.527.344-.587.08-1.21.106-1.87.08l-.154.048c-.2-.034-.46-.022-.785.035l-.178-.042c-1.086.046-1.888.06-2.41.044-.16.028-.665.063-1.51.104l-.18-.012-.362.035-.623-.134-.205-.074c-.3-.02-.77-.184-1.41-.49l-.162-.25-.04-.305.07-.537-.124-.4.01-.118-.057-.486.053-.326c-.033-.383-.037-.765-.01-1.145l-.017-.18.01-.15-.048-.184.02-.3-.042-.244.04-.147-.022-.122.01-.15-.042-.244.05-.266-.03-.455-.05-.153-.06-.427.107-.232-.02-.15.043-.18-.086-.485.042-.178-.09-.88-.076-.185-.017-.18.11-.324.067-.507-.024-.09-.14-.16-.01-.272.006-.09.1-.143.036-.087.006-.09-.135-.22.004-.06.14-.262.006-.09-.075-.214-.012-.243-.093-.397.04-.12.16-.168.073-.175-.033-.393-.132-.25-.114-.097-.054-.095.008-.12.143-.32.016-.24-.077-.185.006-.09.04-.118.01-.15-.08-.155-.1-1.15.083-.325c-.052-.406-.06-.716-.025-.935l-.013-.24.038-.12-.015-.21.053-.33-.04-.27.04-.15-.018-.18.085-.357-.05-.152-.017-.182-.05-.153.102-.594-.033-.395.08-.295.026-.36-.013-.24.047-.238-.02-.152.05-.718-.043-.243.087-.387-.06-.454.048-.24-.047-.183.108-.264-.023-.09-.082-.127.01-.12.04-.147c-.014-.083-.006-.353.026-.812l-.066-.334.044-.208-.032-1.265.075-.204.04-.57c-.016-.06-.012-.26.012-.6l-.017-.21c.05-.158.07-.407.053-.75l-.024-.092-.058-.033.032-.026.066-.085.02-.303c-.033-.383.007-.81.12-1.283l-.02-.152.02-.72c.1-.856.11-1.548.026-2.073.048-.118.056-.24.025-.36l.044-.208c-.037-.324-.022-.684.046-1.08-.02-.282.003-.902.07-1.86l-.033-.393c-.046-.204-.055-.506-.027-.905l-.084-.517.06-.447-.04-.272.05-.298-.037-.333.064-.477c.03-1.02.034-1.782.01-2.285.056-.236.068-.846.037-1.83-.018-.604-.005-1.215.038-1.833l-.04-.274.048-.267-.01-1.564-.05-.153.012-.18.08-.295-.036-.333.053-.327c.03-.74.05-1.3.056-1.68l.04-.148.01-.57.087-.386-.01-1.143c.035-1.36.047-2.1.035-2.222l.043-.178-.042-.243.078-.265-.028-.453-.07-.307.05-.267c.007-.962.025-1.512.055-1.65 0-.302-.003-.532-.012-.693l.03-.84-.037-.333.017-.24-.048-.184c.038-.258.063-.456.07-.596l-.047-.154c.04-.558.052-.888.038-.99.058-1.118.127-1.955.206-2.51l-.03-.454.12-.834-.07-.727c.02-.278.054-.496.105-.653l.098-.113.278-.1c.185-.05.377-.066.576-.05l1.05.042.504.095.498.187.122-.022c.265-.062.608-.088 1.028-.078.522-.004.863-.01 1.024-.02l.297.052.305-.07.36.025.44.12 1.145-.01.248-.102.288.17.176.073c.303 0 .743-.01 1.326-.03z"/><g><path fill="#247033" d="M42.483 83.77c-.075-.103-.183-.15-.323-.136-.16.012-.282.015-.362.01-.218-.03-.51.004-.876.105-.426.097-.72.152-.88.164-.868.134-1.533.21-1.995.225-.763.04-1.345.07-1.747.088-1.523.02-2.666.05-3.43.09-1.003.048-1.625.066-1.864.053-.336-.096-.603-.16-.8-.19-.38-.04-.615.057-.708.292-.048.158-.055.298-.022.42.016.08.04.222.068.424l.097 1.026c.076.465.115 1.058.118 1.78l.06 1.715c.01.96.03 1.513.064 1.655.084.325.125.878.124 1.66-.002.42.024 1.073.078 1.956-.01.18.026.462.105.846.01.16-.002.41-.04.75.06.403.107 1.026.142 1.87.15 2.09.23 3.266.236 3.527 0 .763.072 1.887.214 3.375l.093 1.658c-.02.38.01.95.09 1.718-.02.4-.02.99-.002 1.773l.046.843c-.032.2-.027.49.013.872-.002.04-.026.118-.073.237-.046.117-.06.197-.042.238.016.08.04.18.074.304.016.08 0 .18-.045.297l.156.46c.034.1.027.24-.022.42-.05.197-.076.326-.08.386.094.484.142.738.14.757-.077.697-.065 1.26.033 1.684.05.204.074.506.073.907-.022.42-.008.72.042.903.05.184.057.454.018.812.047.242.064.494.05.753l.12 1.748c.098.787.197 1.953.296 3.5.06.385.1.958.12 1.72l.06 1.746c.057.422.097 1.004.118 1.746.037.823.067 1.397.09 1.717l.122 1.69c.047.242.022.53-.075.867.01.2.086.455.23.763.062.345.053.894-.027 1.652l.25 4.43c0 .36.024.662.072.904.06.382.088.995.083 1.835l.112 1.87c.08.785.148 1.96.206 3.525l.21 1.694c.01.22.04.563.098 1.027l-.048.358c-.005.1.04.213.133.337.055.082.12.208.19.37.037.062.155.11.354.14.153.108.417.212.793.312.097.046.248.054.45.023.202-.048.343-.05.42-.008.078.045.133.138.165.28.04.02.18.01.423-.04.203-.028.493-.033.873-.013.38.02.66.024.84.014.12-.015.253-.036.395-.07.14-.012.28.004.418.052.138.048.418.052.84.015 1.502 0 2.62-.132 3.355-.395.184-.05.467-.106.85-.164.384-.04.667-.095.85-.165.164-.053.41-.17.74-.352.31-.185.557-.3.74-.353.203-.07.394-.26.57-.57.155-.272.27-.536.342-.794.05-.178.063-.427.04-.748-.02-.42-.025-.673-.02-.752.04-.398-.01-.983-.15-1.752-.14-.787-.198-1.38-.177-1.782.018-.34-.062-.914-.24-1.725-.07-.203-.095-.475-.077-.815.02-.378.024-.66.014-.84-.16-.75-.222-1.303-.184-1.66.04-.36.064-.65.076-.868 0-.36-.058-.624-.17-.79-.054-.103-.046-.242.023-.42.094-.255.14-.393.142-.413.012-.26-.035-.492-.145-.698-.085-.285-.08-.585.017-.9.023-.06 0-.16-.074-.304-.05-.163-.076-.274-.072-.335.034-.278.013-.63-.065-1.055.057-.318.08-.547.067-.688l-.176-1.81c-.006-.242-.04-.544-.1-.908l-.164-.91c.022-.8.013-1.39-.027-1.774-.08-.785-.12-1.39-.117-1.808.063-.818.064-1.41.003-1.772-.076-.465-.125-1.06-.147-1.78-.02-1.163-.03-1.753-.028-1.774-.12-1.53-.21-2.685-.27-3.47-.086-1.387-.146-2.54-.178-3.464-.08-1.547-.138-2.71-.177-3.493-.02-.383-.08-.946-.182-1.693-.1-.747-.162-1.31-.182-1.693-.115-1.626-.18-2.84-.2-3.643-.1-.747-.11-1.308-.03-1.684.048-.178.043-.45-.02-.812-.06-.384-.074-.665-.044-.843.026-.14.013-.28-.04-.423-.068-.223-.1-.345-.1-.365.07-.177.096-.316.082-.418-.053-.143-.077-.254-.073-.334.082-.817.074-1.428-.025-1.834-.048-.242-.064-.503-.05-.783-.06-.363-.086-.645-.075-.844-.037-.443-.06-.775-.068-.995.02-.36.013-.63-.018-.81-.094-.487-.164-1.07-.208-1.755-.02-.782-.038-1.374-.057-1.775-.16-1.55-.26-2.717-.3-3.5-.077-.405-.112-.707-.1-.907.02-.42.008-.75-.04-.993-.057-.805-.157-1.39-.298-1.758-.058-.404-.125-.657-.2-.76z"/><path fill="#247033" d="M41.836 83.496c-.237-.053-.58-.03-1.025.066-.586.13-.94.2-1.06.215-.467.096-1.13.16-1.994.196-1.067.104-1.72.14-1.96.108l-.21.05-.15-.008-.178-.07-1.45.135c-.257-.034-.608-.032-1.05.005-.482.014-.833.016-1.052.005l-.213.05-.538-.06-.293-.135-.3-.016-.238-.042-.394.07-.216.108-.13.173-.14.414.013.3.106.276.126 1.028-.015.27.054.693.046.243.023.722.054.093.02.21-.01.18.018.212-.003 1.202-.03-.003c.062.344.08.745.056 1.205l.073.334.013.873.08.212-.037.69.05.213.01.932.048.243-.025.48.05.152.04.423-.04.72c.045.302.093.915.145 1.84.02.762.088 1.365.205 1.812-.018.34-.003.83.043 1.474.004.683.03 1.175.073 1.476l-.017.33.08.186c.062 1.084.093 1.646.09 1.686l-.013.27.044.303-.013.27.022.152-.01.18.05.183.037 1.595.045.273c.008.24.008.622 0 1.14l-.013.27.046.242-.017.33-.04.18.097.426-.064.658.072.335-.006.118-.14.386.02.15.082.152-.07.178-.006.12.18.58v.03c-.016.28-.047.487-.094.625l.042.333.08.214-.015.27-.08.356.05.183.056.094-.016.9.047.242c.01.18.027.462.046.844l-.01.21.02.15-.016.33.076.275.02.212-.053.418.072.335c.034.122.028.24-.018.36l.05.183-.01.208.09 1.118.026.09-.01.21.152 1.66.046.274.046.843.092.546-.043.238c.097.446.14.798.125 1.06l-.036.117.044.303-.013.24c.033.144.04.364.026.663l.106.817-.072.237.045.273.077.244c.01.583.032.934.066 1.055l.01.902-.038.178.032.544.022.15-.015.84c.022.342.07.595.14.76-.008.16.01.39.054.693l-.01.15-.096.143-.012.21.045.304c.034.102.09.184.167.248l.046.274-.073.805.05.184-.07.205c.025.282.023.512-.006.69.06.406.083.716.072.937l.08.184c-.028.16-.03.38-.004.66l.023.122.062.574c-.02 1.12.034 2.014.16 2.683l-.03.54c.164 1.09.23 2.294.202 3.614l.048.24.1 2.08.05.183c-.026.14.02.592.14 1.36l-.007.15.05.182c.012.542.057 1.014.136 1.42l-.01.21-.1.204.02.15.255.314.076.274.144.128.21.012c.175.11.44.213.795.312l.262.134.24.013.273-.046.21.012.078.213.117.067.06.003.787-.108.957.08.422-.037.396-.1.09.004.295.107c1.12.02 1.85.018 2.193-.006.824-.057 1.543-.2 2.155-.427l1.273-.203c.634-.247 1.148-.5 1.542-.76l.395-.1.188-.14.626-1.05.074-.294v-.54c-.035-.123-.046-.293-.035-.514.113-.635.112-1.185-.004-1.652.012-.24-.047-.632-.18-1.18-.09-.527-.13-.93-.116-1.21l-.075-.272.015-.3-.033-.512-.047-.242-.054-.123-.128-.427.076-.297-.093-.514.01-.18-.02-.21.044-.24-.1-.395.006-.69-.075-.275v-.6l.037-.12c-.02-.36-.017-.63.013-.81l-.044-.302-.135-.278.006-.09.168-.32.015-.3-.102-.366.04-.15-.106-.275v-.602l.072-.206-.106-.275-.044-.303.022-.42-.085-.666.012-.24-.017-.243.04-.206-.078-.214-.035-.483.05-.387-.132-.338.03-.6-.077-.213-.24-2.868-.014-1.473c-.047-.243-.08-.596-.095-1.056l.037-.12v-1.17l-.07-.394-.038-.963c-.024-.3-.022-.53.006-.69-.046-.264-.063-.525-.05-.786l-.05-.182c.056-.297.04-.577-.045-.843l.01-.21-.06-1.115c.003-.08-.03-.4-.1-.966l.036-.118-.154-1.09.01-.21c-.06-.762-.087-1.195-.082-1.295-.025-.66-.05-1.153-.073-1.475l.04-.21c-.033-.5-.073-.884-.12-1.148l.086-.474-.05-.184-.025-.663-.052-.153.013-.24c-.022-.742-.073-1.295-.154-1.66l-.01-.392-.064-.483.01-.212-.105-.275c.03-.178-.02-.752-.15-1.72l-.052-.153.002-1.17-.05-.214.044-.237-.07-.394-.066-1.596.016-.3-.02-.18.057-.54-.074-.303.005-.12.04-.177-.016-.27-.08-.216.05-.388-.03-.542-.14-.247.005-.06.105-.295.008-.15-.11-.186.006-.12c.05-.197.05-.378-.002-.54l.102-.805-.12-.548-.007-.45-.05-.183-.03-.574-.053-.153.017-.33c-.014-.48-.045-.833-.094-1.056l.046-.298c-.06-.745-.133-1.29-.215-1.634l-.044-1.444-.07-.365.018-.36-.074-.303-.038-.994-.05-.183-.068-.995.01-.21-.073-.304-.016-.842-.1-.395.067-.687-.12-.577.007-.12-.2-1.362c-.085-.285-.136-.458-.152-.52l-.082-.153-.043-.332-.114-.126-.293-.136c-.24.018-.373.04-.394.06zm-.287.315l.09-.024.21.04c.06-.036.162-.06.303-.073l.175.1.046.272.082.154c-.002.04.05.202.155.488.005.302.072.735.203 1.302l-.008.15.092.546-.036.69c.076.463.104.886.084 1.265l.075.305c-.035.26-.017.67.054 1.235l.05.183.045.303.024.662.044.302-.017.33.07.394.045 1.445c.082.343.155.868.218 1.572l-.047.328c.048.223.08.575.095 1.056l-.017.33.05.183.03.6.08.156-.022.448.122.548-.1.777.045.272-.042.237.02.21.08.186-.11.353.018.213.14.187.007.45-.053.448.107.246-.008.15-.04.178-.01.21.076.274-.06.567.052.152-.044.27.063 1.654.077.245-.002 1.77.08.184c.113.908.164 1.46.155 1.66l.074.304-.01.18.04.392.054.123-.02.39c.082.344.134.886.155 1.63l-.013.24.05.184.026.662.052.152-.083.447c.046.262.086.655.118 1.178l-.04.178c.024.323.048.826.072 1.507l-.01.21c.02.36.06.723.123 1.087l-.04.18.153 1.088-.006.12.087 1.205-.006.12c.033.122.044.304.03.544l.02.213-.012.24c.067.242.092.525.076.845l.02.21c-.015.26.002.513.05.755l.03 1.684.072.365.002 1.11-.038.15c.028.24.058.613.092 1.115l.016.843.042.333-.044.268.267 2.93.05.212c.033.142.026.27-.02.39l-.01.21.083.122.05.183-.02.36.034.512.05.182-.008.18.016.242-.044.268.085.666-.022.42.04.39.083.126-.003.06-.038.15-.006.69.107.276-.036.117.1.397-.01.18-.135.293-.04.178.02.213.14.188.02.21c-.03.16-.033.41-.01.75l-.037.12-.007.72.078.245.024.692.05.183.02.18-.042.238.05.214-.01.18.065.483-.078.327.124.517.054.123.05.183.035.483-.018.33.076.274c-.03.58.063 1.285.28 2.117l.015.272c.12.406.12.937.007 1.592l.036 1.023-.072.238-.56.933-.063.057-.396.13c-.352.222-.846.467-1.48.735l-1.303.2c-.835.297-2.235.434-4.196.412l-.265-.105-.21-.01-.398.128-.39.01-.958-.08-.697.113-.052-.153-.144-.127-.358-.02-.275.076-.15-.037-.234-.104c-.393-.14-.657-.254-.793-.34l-.18-.01-.08-.214-.224-.283.098-.145.017-.33c-.02-.743-.082-1.276-.185-1.603l.007-.15-.148-1.18.01-.208-.05-.184-.1-2.077-.048-.243c.038-1.12-.03-2.315-.203-3.586v-.57c-.105-.667-.15-1.56-.13-2.68-.026-.263-.046-.453-.06-.574l-.024-.122-.028-.633-.05-.213c.012-.198-.012-.502-.07-.904.026-.138.027-.35.002-.63l.104-.266-.08-.215.042-.778-.04-.393-.142-.158-.027-.063-.02-.182.01-.148.065-.117.042-.238-.08-.785-.048-.213-.065-.484.014-.84-.057-.664.04-.178c-.052-1.304-.076-1.976-.075-2.017l-.126-.457.072-.236-.13-1.508c.01-.222 0-.392-.034-.515l.036-.117c0-.36-.042-.724-.123-1.09l.042-.236-.12-.578c.022-.418.002-.79-.06-1.115l-.04-.964-.055-.123-.06-.543.01-.24-.052-.124-.097-1.026.044-.237-.05-.184c.027-.14.01-.37-.054-.695.06-.38.046-.69-.042-.933l.016-.3-.023-.122.013-.24-.044-.873-.05-.243-.01-.932-.054-.123-.025-.093.08-.356.005-.088-.018-.242-.08-.214-.018-.212c.047-.136.078-.356.094-.656l-.022-.15-.153-.52v-.03l.068-.145.008-.15-.11-.217.108-.325.04-.207-.07-.364c.035-.28.056-.49.063-.628l-.1-.397.04-.178c.015-.26.004-.46-.028-.602l.013-.27c-.032-.16-.032-.55 0-1.17l-.075-.276c-.023-.702-.035-1.233-.036-1.595l-.023-.15.01-.21-.023-.122.014-.27-.042-.333c.032-.217.03-.55-.008-.99-.053-.524-.075-.856-.068-.995l-.11-.187.044-.267c-.072-.544-.096-1.037-.073-1.476-.065-.665-.09-1.167-.07-1.506-.12-.426-.188-1.02-.208-1.782-.033-.903-.072-1.506-.116-1.81l.038-.75-.034-.48-.082-.156.052-.418-.048-.242-.01-.962-.048-.214-.01-.36.035-.12.012-.24-.11-.215-.015-.843-.075-.305c.034-.258.035-.66.003-1.2-.032-.523-.03-.924.003-1.203l-.02-.182.012-.21-.023-.15.006-.12-.054-.124-.025-.662-.048-.243-.015-.302-.07-.364.043-.268c-.06-.364-.102-.727-.123-1.088l-.106-.276-.02-.18.104-.296.065-.087.395-.1.447.053.294.136.657.063.213-.05c.22.013.56 0 1.023-.035.442-.037.783-.04 1.02-.007l.756-.08c.3.016.53.007.693-.023.076.044.205.07.385.08l.213-.05c.84.045 1.853-.012 3.043-.17 1.558-.244 2.447-.387 2.67-.436z"/><path fill="#FFF" d="M33.245 67.424c-.168.152-.292.415-.372.792-.002.04-.038.338-.107.895-.03.2-.067.51-.11.927-.06.378-.134.674-.226.89-.26.747-.43 1.34-.513 1.775-.217 1.07-.336 1.625-.358 1.663-.05.178-.322 1.346-.815 3.503-.334 1.404-.656 2.55-.96 3.434l-.288.886c-.027.14.017.242.134.308.06.023.19.05.387.08.238.053.526.088.866.105.2-.008.49-.013.872-.013 1.757.092 2.968.106 3.633.04.284-.065.676-.104 1.178-.118.58-.01.982-.03 1.204-.058.526-.093 1.31-.172 2.356-.237l.97-.16c.523-.052.796-.098.818-.137.084-.076.08-.216-.008-.42l-.188-.432c-.08-.404-.153-.71-.222-.912-.163-.33-.28-.596-.35-.8-.083-.305-.198-.59-.345-.86-.077-.404-.172-.7-.283-.885-.072-.146-.158-.42-.257-.826-.1-.366-.32-.938-.66-1.717-.324-.718-.534-1.29-.632-1.715-.13-.548-.312-1.108-.543-1.68-.16-.77-.32-1.34-.48-1.708l-.38-1.372c-.112-.146-.187-.25-.224-.312-.018-.402-.052-.694-.103-.877-.07-.184-.135-.297-.192-.34-.058-.043-.198-.05-.42-.022-.18.01-.46.007-.84-.013-.36-.02-.64-.014-.842.016-.404.06-.708.123-.912.192-.417-.022-.68.016-.785.11z"/><path fill="#FFF" d="M35.13 66.983l-.147-.037-1.214.236-.212.02-.148-.04-.185.082-.156.112-.31.736c-.092.616-.25 1.538-.475 2.77l-.456 1.237c-.15 1.293-.336 2.194-.563 2.703l-.006.12c-.3 1.165-.453 1.778-.456 1.838-.03.18-.107.506-.232.98-.12.395-.187.712-.2.95-.22.75-.34 1.135-.362 1.154l-.05.388-.205.47-.044.268c-.24.748-.372 1.192-.4 1.33l.05.184.145.127 1.31.25.42-.038.18.04c.282-.046.722-.033 1.32.04.3.014.74.017 1.32.008l1.353-.02-.02-.18.022.15c.646-.106 1.158-.12 1.534-.04l2.783-.364.24.013 1.876-.264.184-.08.098-.145.01-.21c-.07-.183-.23-.732-.483-1.646-.112-.165-.22-.392-.325-.678-.083-.325-.16-.57-.232-.734l-.138-.247c-.053-.123-.095-.305-.12-.547-.128-.248-.22-.402-.277-.465-.258-.815-.428-1.395-.51-1.74l-.3-.556-.156-.49-.167-.248-.48-1.738-.136-.248c-.156-.448-.283-.886-.38-1.31l-.11-.217c-.003-.32-.076-.635-.22-.943l-.05-.213-.135-.277-.195-.883-.224-.312.017-.33-.226-.853-.143-.127-.208-.04-.752.02-.238-.043-.24-.013-.274.076-.3.015zm-1.708.512l.12.035.3-.013.728-.143.215-.078.18-.02.54.027.245-.077.15-.022.237.072.782-.02.06.004.203.702-.013.24.02.212.17.19.055.092.194.882.135.277.05.214c.088.204.162.508.22.912l.108.246c.095.485.222.933.38 1.34l.138.25.48 1.736.168.25.156.458.3.587.54 1.74.247.433c.027.262.067.454.12.577l.138.248c.316.857.5 1.328.557 1.41.09.206.163.52.22.944l.24.613-.004.06-.03.028-1.815.236c-.378-.06-.88-.038-1.506.07-.69.144-1.195.238-1.518.28-.217-.05-.567-.07-1.048-.054l-.82.167-.508-.056c-.162.03-.663.045-1.504.04l-1.438-.074-.18.02c-.16-.028-.36-.03-.6 0-.498-.067-.885-.138-1.162-.212h-.03c.03-.16.16-.583.397-1.272l.042-.238.176-.5.08-.388c.045-.078.166-.472.363-1.182.013-.22.08-.527.2-.92.12-.416.187-.722.198-.922.036-.3.2-.95.493-1.957l.006-.09.03-.027c.276-1.047.453-1.93.53-2.646l.15-.563c.022-.04.124-.264.306-.675.204-1.212.352-2.126.444-2.742l.274-.646.032-.03.06-.027z"/><path fill="#247033" d="M35.255 61.19l-.04-.392c-.05-.183-.147-.248-.29-.195-.12.013-.222.228-.304.645-.022.06-.057.337-.103.835-.058.338-.13.594-.22.77-.11.195-.26.738-.447 1.63l-.08.416c-.007.1-.053.227-.142.382-.01.2.185.29.587.27l.78.042c.34-.002.592-.04.756-.11.687-.105.905-.434.653-.988-.41-.942-.642-1.495-.694-1.658-.244-.715-.395-1.264-.455-1.647z"/><path fill="#247033" d="M34.487 60.94l-.014.27-.073.236-.175 1.043-.074.265-.133.264c-.038.357-.14.752-.302 1.184l-.098.716-.167.322-.01.21.14.187.176.07c.26.012.54-.003.844-.047l.57.03.117.036h.03l.363-.04.123-.054.362-.04.246-.11.16-.17.13-.204-.01-.33-.132-.37-.11-.185-.13-.397-.113-.126c-.16-.37-.314-.878-.46-1.526-.11-.206-.253-.724-.43-1.555l-.083-.124-.207-.072-.18.02-.19.17-.168.322zm.49-.184l.06.003c.065.643.2 1.15.4 1.522.13.567.293 1.097.487 1.588l.114.126.1.365.14.22.105.275-.01.18-.16.202-.122.053-.36.04.02.153-.08-.155-.064.057-.272.016-.088-.034-1.413.016h-.03l-.028-.033.002-.03.135-.294.128-.715c.162-.412.263-.807.302-1.185l.134-.264.077-.325.02-.36.073-.266.166-.864.164-.29z"/><path fill="#231F20" d="M36.156 59.466c-.075-.084-.187-.25-.334-.5l-.344-.317-.353-.14-.327-.077-.15.022-.46.156-.157.143-.165.292c-.07.197-.167.522-.29.976-.104.436-.2.762-.293.977l.018.242-.035.087-.163.232-.044.267-.17.38-.045.3c-.112.214-.22.56-.325 1.034l-.06.568-.105.295.004.48-.034.09-.063.057h-.03l-.115-.097-.06-.004-.123.053-.037.118-.006.12.08.156.176.1.057.062-.04.208.053.123-.043.237-.1.205-.128.144-.044.268-.03.57c-.102.434-.198.73-.286.885l-.16.742c-.137.333-.244.658-.32.974l.014.302-.1.175-.052.418-.376.882-.036.118-.02.36-.165.862.02.182-.22.74.01.42-.2.35-.217.71-.098.145c-.147.893-.244 1.408-.29 1.546-.008.12-.047.498-.12 1.135-.025.08-.094.247-.207.5-.092.217-.15.394-.178.532l-.17.382c-.168.512-.252.978-.254 1.4l-.18.56c-.04.38-.138.924-.296 1.637l-.07.207.003.51.05.184.014.302-.036.12.088.634.008.42-.043.24.046.272-.01.15-.068.176.002.54.153.52.044.303-.048.357c-.012.24.006.462.055.664l-.04.208.067.425.01.992-.044.238.016.272c.07.204.103.516.1.936l.028.633-.038.15-.003.06.027.06-.005.09-.04.208-.086 1.047c.048.223.125.848.23 1.875l.1.396-.043.268.006.45.134.308-.014.3.048.213-.014.3.047.24.008.993.052.184c.008.6-.003.99-.032 1.17l.036.452-.016.3.098.425.123 1.657-.013.27-.074.265.04.395-.008.15c.046.262.085.665.117 1.207l-.08.356c.183 1.11.267 1.806.252 2.086l.02.18.055.124c-.055.278-.098.705-.128 1.285l.057.633-.02.36.024.123c-.016.3.02.582.106.847l.012.332-.042.237-.07.204.02.154.135.306.104.877-.046.3.05.212-.045.837.18.55v.602c.058.402.08.715.07.934l-.037.12.17 1.36-.037.688-.04.18-.016.328c.092.526.122.918.088 1.178l.12.606-.085.446.038.422c-.022.44-.02.77.01.992l-.01.18.196.85-.086.478.147.638-.082.416.174 1.84.078.215c.014.12.052.354.114.697.064.305.1.547.112.727l.024.124-.02.36.02.18-.008.18.08.213-.01.18-.042.21.094.515-.082.416.022.725c.03.18.035.47.014.87l.233.735c.03.182.035.46.015.84l.073.336c-.05.178-.06.347-.027.508-.178.752-.165 1.444.043 2.075 0 .38.03.94.09 1.685l-.04.24.098.394-.002.63-.045.3.07.362.053.153c-.037.32-.018.72.057 1.204.067.624.107 1.017.118 1.177l.052.184-.013.24-.07.148-.014.27c.076.463.11 1.167.1 2.107l.078.244.01.932-.078.356-.02.36.164.34-.008.148-.077.327.083.696.054.12c.08.407.116.65.112.73-.075.656.01 1.54.25 2.656l.138.247.567.662.32.197.44.202 1.6.416.39-.01c.34.037.704.137 1.096.298l.658.064.455-.096c.22.01.538.038.957.08l.118.037.936-.1.42.05c.28-.023.483-.064.606-.117l.686.096c.484-.055.98-.148 1.487-.283l.91-.163.237.042.85-.167c.51-.212.82-.357.923-.43l1.47-.556.287-.285c.33-.162.543-.262.646-.297l.26-.346.207-.53c-.02-.744-.022-1.304-.002-1.683l-.16-.94c-.09-.967-.114-1.68-.07-2.136-.013-.12-.032-.522-.057-1.204.03-.138.03-.52 0-1.14l-.113-.697-.042-1.475.01-.18c-.058-.444-.122-.758-.19-.94.02-.44.01-.99-.035-1.655-.08-.746-.132-1.3-.153-1.66l-.14-3.073-.05-.182-.014-.302-.05-.212.037-.688c-.063-.705-.115-1.24-.156-1.6l.01-.21c-.03-.182-.046-.443-.048-.784 0-.36-.008-.62-.02-.782l-.052-.153-.08-.755c.04-.4.036-.88-.015-1.443-.068-.644-.122-1.13-.165-1.452l.04-.178c.007-.52-.023-.902-.09-1.146l.053-.448c-.088-1.386-.128-2.15-.12-2.29l-.087-.636.008-.15-.048-.213.006-.69-.02-.18c-.015-.504-.046-.855-.096-1.058v-.54l-.025-.122.006-.12-.02-.15.024-.48c-.092-.525-.155-1.05-.188-1.57l.013-.242-.02-.24c.053-.218.044-.628-.024-1.233l-.05-.182.013-.84-.02-.182c.013-.28-.02-.592-.102-.937l-.024-.12c-.025-.283-.024-.503.005-.662l-.123-.547c-.01-.562.002-.992.038-1.29-.105-.687-.137-1.41-.097-2.17l-.074-.303c.026-.5-.016-1.232-.125-2.2-.053-.923-.117-1.607-.194-2.052.023-.44-.024-1.063-.142-1.87l.006-.124-.027-.122c-.03-1.302-.068-2.126-.11-2.47l.025-.478-.05-.183c-.03-.563-.046-.854-.045-.874l-.055-.093.04-.208-.01-.362-.076-.274c.006-.5-.005-.872-.032-1.113.027-.137.036-.298.025-.48l-.052-.152.016-.3.04-.207c-.03-.2-.035-.492-.015-.87l-.064-.485-.078-.214-.013-.9-.102-.367.042-.238-.02-.18.008-.15c-.093-1.287-.183-2.243-.27-2.87l-.012-1.502c-.038-.422-.072-.734-.1-.936-.042-.363-.096-.676-.162-.94l-.04-.392.077-.327-.014-.27-.133-.338-.014-.302c-.135-.507-.2-.8-.195-.88-.102-.347-.174-.69-.217-1.034l-.078-.214-.14-.188-.203-.16c-.132-.528-.253-.905-.36-1.13l-.115-.127c-.08-.365-.196-.65-.345-.86l-.473-1.286c-.025-.303-.163-.72-.415-1.254l-.1-.426-.578-1.562c-.033-.142-.18-.6-.44-1.375-.164-.29-.28-.556-.347-.8l-.138-.247c-.094-.486-.3-1.157-.615-2.015-.312-.917-.517-1.598-.614-2.044-.02-.02-.123-.317-.314-.888l-.268-.615c-.175-.49-.285-.866-.33-1.128l-.083-.155-.016-.27c-.086-.286-.165-.49-.24-.614l-.05-.183-.133-.308c-.27-.975-.44-1.715-.515-2.22l-.135-.307c-.22-1.173-.465-2.007-.74-2.502zm-1.023 1.178l.057.063c.122.727.256 1.235.4 1.523.113.526.276 1.046.49 1.558l.084.124.13.367.243.523-.014.27-.067.146-.128.143-.185.08-.392.04-.122.053-.303.045-.118-.036-.63-.033c-.02 0-.28.017-.783.05l-.117-.066-.055-.093.006-.12.137-.322.097-.686c.18-.41.282-.806.302-1.186l.134-.263.107-.325.02-.36c0-.04.042-.257.123-.654l.115-.474.136-.294.125-.113.09-.025.118.066zm-2.226 7.514l.307-.705.065-.087.15-.022.118.036.242-.017c.304-.085.557-.13.757-.14l.185-.08.242-.05.15.04.36-.012.244-.076.21.01.206.072.932-.012.057.063.2.792-.014.238.02.152c.097.085.172.18.227.282l.194.88.137.28.05.212c.087.225.16.54.22.943.144.308.307.817.49 1.527l.138.248.48 1.737.165.278.156.46.3.586.51 1.71.277.464c.025.282.065.474.12.577l.14.218c.07.164.148.408.23.733.106.286.214.522.324.708.122.346.275.875.458 1.586l.022.15-.063.058-.093.055c-.603.05-1.218.136-1.845.264l-.27-.014c-.663.045-1.58.157-2.752.336-.297-.057-.93-.02-1.898.11l-.478-.055c-.342.042-.854.065-1.535.07-.36-.04-.628-.063-.808-.073-.338-.038-.608-.042-.81-.012l-.6-.002c-.38-.02-.787-.09-1.22-.214l-.088-.064-.025-.092.04-.178.36-1.123.043-.238.176-.502.05-.388c.087-.136.157-.332.21-.59.097-.335.16-.532.18-.59-.007-.222.048-.52.168-.894.143-.433.22-.74.228-.92.032-.218.196-.87.493-1.956l-.026-.09c.275-.668.463-1.57.562-2.706l.182-.59c.044-.08.145-.294.304-.646.205-1.23.354-2.144.445-2.74zm8.62 15.473l.33.018.333-.042.235.102.057.063.044.304.082.154c.014.12.065.294.153.52 0 .04.066.473.203 1.3l-.008.152.092.546-.036.69c.082.363.11.786.086 1.265l.104.307-.01.18.065 1.053c.052.163.082.545.09 1.147l.075.304-.05.36.072.363.044 1.444c.082.345.155.88.217 1.603l-.047.328c.048.223.09.565.126 1.028l-.017.33.05.182.03.603.05.154.007.45.092.545-.103.806.047.273-.02.388.11.186-.142.413.022.152.14.186.004.51-.05.42.106.246.02.21-.07.177-.008.15.106.275-.077.326.038.424-.044.27.095 1.626.072.363-.045.27.05.212-.002 1.17.052.153c.13.968.18 1.542.15 1.722l.076.273-.01.18.094.515.01.39c.06.365.11.92.153 1.662l-.01.21.045.844.052.152-.055.478c.026.26.055.653.088 1.176l-.01.18c.024.32.048.824.072 1.506-.054.258-.026.68.084 1.265l-.01.21.123 1.09-.006.12.082.723-.015.27.05.184-.004.66.048.242-.04.207c.082.324.107.618.074.876l.05.182c-.014.26.003.51.05.753-.027.14-.027.33 0 .572l-.037.15c.028.6.042.922.04.962l.07.365-.007 1.292c.03.6.05.962.063 1.083.037.462.042.753.016.872l.042.332-.014.27.046 1.414c.022.343.087.827.195 1.454l.078.213-.01.21c-.028.14-.035.268-.02.39l.053.122.05.212-.022.39.034.482.08.213-.04.18.017.24-.043.24.116.665-.054.45.043.33.083.125.026.09-.04.18-.004.66.105.275-.036.12.1.395-.042.237-.135.294-.038.15.022.15.14.188.018.24-.01.78-.04.15-.004.66.08.246.022.692.1.395-.043.237.018.213-.01.18.066.483-.076.296c.055.102.106.265.155.487l.053.123.02.21c.014.103.036.265.064.485l-.017.33.075.276c-.042.44.04 1.144.25 2.116l.016.27c.12.388.122.928.005 1.623l.034 1.053-.043.237-.623 1.02-.124.083-.366.102c-.373.24-.877.493-1.512.762l-1.302.202c-.613.226-1.32.36-2.124.398-.464.035-1.175.04-2.135.007l-.294-.105-.15.022-.396.098-.423.04-.956-.082-.757.11-.058-.032-.08-.215-.057-.06-.544.062-.21-.012-.264-.133-.53-.18-.235-.13-.207-.042-.058-.034-.078-.242-.255-.315-.025-.09.098-.145.014-.27c-.087-.646-.132-1.128-.135-1.45l-.02-.18.005-.12-.178-1.18.01-.21-.02-.18c-.05-.565-.068-.985-.054-1.267-.05-.18-.066-.452-.047-.81l-.076-.247c.028-1.3-.04-2.495-.203-3.584l.03-.57c-.14-.73-.185-1.622-.13-2.68-.05-.184-.07-.376-.06-.575l-.053-.123.005-.66-.05-.183-.07-1.566.074-.238-.08-.213.073-.808-.044-.332c-.096-.064-.153-.138-.168-.22l-.038-.42.097-.147.04-.178-.08-.755-.08-.185-.063-.544c.02-.38.022-.61.006-.69l.038-.15-.085-.665.04-.18-.077-1.986-.077-.245-.018-.243.042-.238c-.02-.38-.055-.663-.106-.846.015-.28.006-.492-.027-.634l.044-.238-.044-.302.036-.118c-.02-.382-.062-.735-.125-1.06l.014-.24-.09-.576-.016-.84-.076-.275-.04-.963-.115-.668.043-.24-.055-.12-.095-1.057.013-.24-.022-.152.02-.388-.072-.334.05-.39-.092-.514.015-.3-.02-.15.012-.24-.046-.843-.087-.636.038-.178-.01-.36-.056-.093-.024-.124.08-.356-.026-.09.012-.24-.08-.186-.044-.302.123-.626-.177-.64-.027-.06.103-.267-.11-.186-.027-.06.14-.354.036-.148-.1-.365.064-.658-.07-.395.024-1.02c-.03-.18-.03-.57 0-1.17l-.075-.275-.036-1.594-.042-.363.008-.15-.06-.574.012-.24-.09-1.717-.08-.213.045-.27c-.08-.384-.106-.845-.078-1.384-.063-.706-.085-1.237-.066-1.596-.12-.428-.187-1.03-.207-1.813-.032-.903-.07-1.506-.115-1.81-.003-.32.01-.56.038-.718l-.05-.184.015-.3-.08-.154.022-.45-.05-.212.022-.96-.05-.214-.01-.39c.046-.1.052-.2.017-.3l-.076-.245-.016-.84-.074-.305c.013-.26.014-.66.002-1.202-.032-.522-.03-.923.003-1.2l-.05-.214.04-.21-.016-.24-.085-.095.005-.69-.077-.245.015-.3-.07-.394.013-.24-.094-1.056-.136-.278-.018-.24.14-.383.097-.116.153-.052.334-.073c.18.03.35.037.51.026l.293.135.597.063.213-.05c.458.045 1.15.04 2.074-.01l1.446-.105.356.08.215-.08c.238.033.69.016 1.354-.05.323-.023.805-.047 1.447-.074 1.293-.168 2.263-.328 2.91-.473z"/></g><g><path fill="#F26522" d="M85.224 75.11c-.058-.41-.12-.667-.19-.775-.07-.107-.175-.16-.316-.153-.163.023-.285.03-.364.022-.22-.023-.514.005-.884.088-.453.093-.75.142-.89.147-.88.128-1.54.19-1.98.184l-1.76.086c-1.507.002-2.645.014-3.412.034-.988.036-1.613.04-1.87.014-.33-.115-.604-.184-.822-.207-.377-.06-.608.038-.695.29-.056.155-.07.294-.042.418.052.267.077.41.075.43l.076 1.003c.08.573.108 1.17.083 1.79l.06 1.726c-.032.88-.03 1.434.007 1.66.086.33.13.878.13 1.642-.026.44-.015 1.095.034 1.964-.022.2.01.484.09.855.004.16-.012.41-.048.75l.107 1.85c.036.808.093 1.99.17 3.547 0 .765.062 1.897.186 3.398.002.364.015.907.04 1.633 0 .383.02.958.06 1.726-.02.4-.023.994-.006 1.78 0 .182.01.463.032.848-.01.1-.007.25.013.453.02.184.014.326-.015.423-.004.04-.033.117-.084.233-.05.095-.07.173-.055.236.01.08.04.184.088.31.014.063-.007.16-.06.296l.132.467c.05.084.047.215-.01.39-.063.196-.086.322-.073.385.02.183.055.437.1.765-.074.716-.062 1.28.035 1.693.04.185.05.49.024.907-.02.4-.002.705.056.91.04.186.044.458.005.816l.042.76c-.005.623.024 1.21.087 1.758.043.347.082.934.115 1.762.022.746.063 1.324.12 1.732.06.388.09.965.09 1.73l.058.88c.002.18.002.462.002.844.055.43.086 1.005.09 1.73-.007.824.003 1.398.03 1.723l.12 1.7c.026.143.02.295-.015.45-.05.276-.075.425-.077.446 0 .2.076.44.226.717.04.367.013.925-.087 1.68 0 .382.03.948.093 1.698-.006.444.032 1.04.114 1.793.016.423.032 1.038.046 1.845.06.388.086 1.003.077 1.847l.05 1.846c.077.793.132 1.976.17 3.548.04.387.102.946.184 1.68-.003.22.03.565.103 1.035l-.07.385c-.01.1.03.205.117.314.05.086.118.213.2.383.035.045.142.086.32.124.167.117.438.226.81.326.095.052.243.066.446.047.207-.038.346-.034.422.015.076.05.127.135.153.257.038.023.18.02.425-.016.205-.04.496-.04.874.002.38.02.66.018.845-.002.122-.008.253-.024.397-.05.142-.024.28-.01.416.044.156.057.434.076.838.06 1.51-.003 2.66-.134 3.45-.394.165-.04.452-.092.86-.15.367-.04.654-.093.86-.15.147-.046.39-.162.73-.347.3-.17.544-.285.73-.346.354-.103.64-.546.865-1.326.037-.176.055-.436.05-.778-.02-.404-.02-.675-.005-.814.047-.44.013-.984-.1-1.64-.05-.287-.114-.907-.195-1.86-.058-.792-.13-1.352-.216-1.682-.015-.425-.033-.74-.052-.942.036-.338.042-.588.02-.752-.136-.82-.187-1.387-.153-1.705l.07-1.26c-.084-.15-.132-.265-.144-.348-.03-.104-.006-.23.07-.385.08-.172.114-.31.104-.41.007-.242-.038-.498-.13-.77-.052-.084-.056-.227-.015-.423.044-.238.06-.386.047-.45-.092-.268-.13-.495-.11-.673-.035-.43-.05-.76-.045-1.003.055-.336.07-.574.046-.72-.08-.21-.094-.54-.046-1-.065-.147-.102-.262-.114-.344l.016-.45c.002-.22-.026-.526-.086-.914-.092-.473-.14-.778-.145-.92.023-.802.016-1.407-.022-1.812-.062-.75-.09-1.92-.083-3.51.02-1.545-.005-2.724-.08-3.536-.062-1.514-.134-2.65-.216-3.4-.042-.368-.06-.962-.054-1.786.023-.803.007-1.408-.05-1.816-.02-.785-.038-1.37-.06-1.756l-.088-1.73c-.018-.403-.07-.96-.155-1.674-.08-.77-.133-1.33-.156-1.674-.09-1.62-.135-2.83-.13-3.634-.023-.364-.034-.637-.036-.818-.023-.344-.014-.625.03-.842.038-.197.04-.478-.003-.845-.04-.386-.05-.66-.035-.818.035-.138.03-.28-.015-.425-.043-.165-.08-.3-.11-.403.06-.175.093-.302.1-.382-.043-.145-.072-.26-.083-.34.023-.42.045-.73.066-.93.02-.36 0-.662-.055-.91l-.068-.79c-.042-.367-.053-.64-.035-.82l-.045-1c.02-.38.008-.652-.036-.817-.07-.47-.12-1.06-.145-1.765-.018-.787-.035-1.382-.053-1.786-.138-1.563-.217-2.727-.237-3.494l-.084-.913c.037-.34.032-.67-.016-.998-.056-.81-.147-1.393-.27-1.748z"/><path fill="#F26522" d="M84.767 74.006l-.365.022c-.177-.04-.42-.024-.728.044-.433.095-.678.14-.738.133-.96.14-1.46.21-1.5.205-1.662.127-2.692.17-3.09.127l-.215.038-.15-.016-.174-.05c-.245.035-.497.04-.757.012l-.702.077c-.238-.026-.59-.023-1.057.008-.462.012-.813.005-1.052-.02l-.185.04-.537-.055-.32-.124c-.24-.026-.416-.055-.533-.088l-.4.08-.193.1-.137.166-.168.435.032.275.09.28.103 1.037-.028.27.053.367-.006.33.068.22.01.755.054.066.008.212-.023.21.038.214c-.047.255-.068.655-.067 1.198.06.41.068.802.027 1.18l.055.337v.875l.096.22-.04.66.064.25-.037.93.037.215-.02.48.073.16.017.423c-.018.16-.032.4-.046.72.034.264.06.87.082 1.818.02.766.085 1.376.2 1.83-.016.34-.008.835.025 1.482-.016.54.002 1.035.056 1.483l-.036.33.072.188.062 1.696-.025.24.073.73-.022.21.045.155c-.008.078-.005.61.013 1.6l.06.277c-.053.517-.063.898-.03 1.143l-.027.267.035.246-.004.332-.048.175.076.43-.07.657.087.34-.01.09-.163.405.015.152.107.132-.003.03-.078.172-.013.12.18.592-.005.03c-.03.28-.07.486-.125.62l.055.338.07.188-.02.21.023.062-.1.382.044.155.05.095v.302l-.02.18.013.453.037.216.032.85-.024.238.016.123-.004.33.06.28.01.212-.045.417.06.308-.013.39.04.186-.02.21.065 1.09.046.126-.02.18.057.61.048.124.023.938.06.28.002.842.093.554-.025.24.102 1.035-.044.146.028.304-.025.238.12 1.46-.057.235.028.305.07.218c-.012.482 0 .836.038 1.06l-.004.906-.05.176.034.546.048.125-.045.146c.024.14.02.372-.013.69l.06.58.07.19.076.73-.043.118-.075.143-.025.24.028.304.157.23.032.273-.055.81.04.184-.05.208c-.016.138-.03.357-.04.658l.08.945.038.217-.01.66.048.126.033.547c-.04 1.142-.002 2.04.11 2.695l-.027.54c.154 1.204.198 2.405.133 3.605l.065.248.093 2.272c-.038.177-.032.41.018.697.025.142.062.367.11.674l-.016.15.043.155c.01.485.05.97.12 1.46l-.023.21-.108.17.04.185.238.326.094.25.14.106.208.02c.147.138.408.246.78.326l.256.147.24.025.486-.04.07.218.14.077.03.002.795-.098.955.1.828-.125.09.01.292.092c.98.042 1.715.048 2.2.02.807-.036 1.525-.162 2.15-.377l1.285-.167c.648-.233 1.167-.482 1.556-.74l.374-.113.195-.13.65-1.018.064-.325.025-.54c.003-.02-.01-.19-.036-.517.046-.256.077-.655.095-1.196l-.077-.43c.007-.242-.042-.64-.146-1.193-.086-.51-.113-.915-.082-1.215l-.065-.248.004-.332-.035-.244-.002-.27-.064-.25-.052-.095-.102-.463.09-.293-.068-.49.02-.18-.038-.215.055-.235-.034-.245-.073-.16.01-.692-.093-.252.035-.628.04-.117c-.02-.183-.01-.453.026-.812l-.028-.304-.13-.196-.02-.093.01-.087.15-.287.06-.295-.11-.404.045-.115-.118-.313.033-.6.048-.176-.15-.588.045-.417-.08-.67.056-.238-.036-.244.053-.207-.07-.217-.038-.49.04-.386-.115-.344.036-.33-.005-.24-.067-.218-.18-2.884.026-.24-.054-.366v-.875c.005-.04-.02-.394-.068-1.063l.042-.116.004-1.176-.05-.368-.057-2.63c.03-.298.01-.583-.06-.852l.022-.208-.034-.275c.035-.32.022-.593-.034-.82.01-.098-.006-.433-.046-1l.012-.118-.125-1.1.02-.18c-.087-.713-.112-1.146-.074-1.304-.012-.664-.03-1.16-.057-1.483l.052-.206c-.027-.507-.057-.892-.09-1.157l.05-.477-.04-.185.02-.178-.013-.454-.04-.185.02-.21c-.02-.746-.072-1.304-.155-1.675l.014-.42-.046-.124-.024-.336.02-.21-.09-.28c.024-.238-.016-.815-.12-1.732l-.045-.156v-1.145l-.037-.215.055-.236-.012-.182-.066-.218-.043-1.604.03-.268-.038-.215.087-.534-.09-.31.012-.12.05-.176-.002-.272-.096-.22.07-.386-.033-.547-.126-.225.006-.06.09-.292.02-.18-.07-.187-.02-.094.023-.24-.027-.303.114-.802-.092-.552-.013-.454-.04-.185-.03-.577-.045-.156.036-.328c-.01-.485-.044-.83-.102-1.037l.064-.326c-.044-.728-.108-1.268-.192-1.618l-.03-1.452-.05-.368.037-.358-.088-.31-.015-.998-.045-.155c-.012-.465-.035-.81-.073-1.036l.02-.18-.055-.336-.006-.815-.077-.4.042-.69-.093-.553.016-.15c-.12-.776-.183-1.225-.19-1.346l-.282-1.055-.11-.103-.29-.12zm-.67.352l.093-.02.208.02.304-.027.173.08.264.932c.01.283.065.71.166 1.284l-.016.15.093.552-.044.69c.08.39.105.815.076 1.275l.06.307c-.01.08.008.484.052 1.213l.096.522-.006.633.058.308-.038.358.052.367.03 1.452c.045.145.07.38.076.702l.118.887-.065.327c.03.103.063.45.102 1.036l-.01.36.042.186v.572l.07.19-.013.42.094.552c0 .182-.036.44-.11.773l.06.278-.056.235.008.212.104.162-.003.03-.128.35.036.214.1.19.017.425-.08.474.124.255-.015.15-.05.175.012.182.06.277c-.04.197-.06.387-.058.567l.01.182-.024.24.067 1.665.05.368-.055.236.036.245-.003 1.175.04.184c.11.876.152 1.433.126 1.672l.09.282-.017.18.048.396.05.126-.013.39c.066.35.11.897.13 1.643l-.025.238.04.185.024.637.04.184-.076.445c.032.264.062.65.09 1.155l-.05.176c.024.344.04.85.053 1.515l-.022.21.097 1.095-.02.18.126 1.098-.012.12.086 1.186-.016.15c.027.123.03.293.006.512l.034.244-.022.21c.07.308.088.6.06.88l.04.185c-.03.28-.016.532.04.758-.032.117-.042.298-.026.54l-.016.15v.27c.036.246.04.49.015.726l.082.37c-.04.378-.05.75-.03 1.113l-.014.15c-.01.48.01.845.066 1.092l.025 1.208-.027.24.208 2.918.036.216-.035.63.075.128.045.156-.005.905.07.187-.045.146.03.276-.054.235.11.675-.076.443.08.372.078.13-.006.058-.046.146-.012.693.09.28-.038.087.108.405-.02.177-.152.317-.05.175.04.215.13.195.01.182-.018.753-.046.147-.01.69.063.25.015.726.084.34-.057.236.036.245-.02.178.073.46-.096.322c.066.148.108.323.127.526l.08.098.012.455.035.243-.003.332.064.248c-.06.576.015 1.29.228 2.134l.002.272c.106.333.1.865-.017 1.597l.012 1.027-.05.205-.584.964-.066.052-.372.082c-.473.292-.98.53-1.522.715l-1.286.197c-.918.305-2.318.42-4.2.342l-.292-.09-.208-.024-.404.11-.365.022-.985-.104-.675.11-.044-.155-.135-.134-.362-.008-.274.03-.15-.014-.23-.116-.438-.136-.37-.19-.15-.016-.095-.252-.213-.264.075-.143.034-.328-.117-1.462-.045-.155.016-.15-.15-1.16.022-.21-.04-.185-.054-2.087-.064-.247c.05-1.04.004-2.233-.137-3.574l.03-.57c-.112-.655-.15-1.554-.11-2.696l-.077-.7.007-.634-.067-.22-.056-.91.033-.6.088-.262-.098-.22.082-.776-.048-.398-.158-.227-.025-.335.102-.11.024-.238-.037-.79-.072-.187-.065-.52c.032-.298.036-.53.012-.693l.044-.146c-.044-.145-.07-.36-.083-.64l.05-.177.006-.934c-.035-.243-.046-.607-.037-1.09l-.092-.28-.01-.183.056-.234-.12-.89c.03-.277.033-.488.008-.632l-.008-.483.044-.146-.13-1.07.03-.27-.093-.55c.002-.02.002-.302-.002-.847l-.06-.278-.02-.966-.046-.128-.04-.787-.048-.125c-.01-.464-.034-.808-.07-1.033l.054-.237-.04-.185.01-.39-.06-.31c.043-.396.035-.7-.023-.906l-.013-.456.022-.208c-.012-.08-.02-.374-.027-.878l-.065-.248.038-.93-.077-.13-.02-.09.098-.353-.026-.334-.068-.22-.037-.213c.055-.136.097-.353.13-.65l-.018-.123-.157-.53.003-.028.076-.144.02-.18-.132-.196.176-.523-.08-.372c.05-.297.072-.515.067-.656l-.08-.402.046-.146.007-.36-.036-.245.03-.27c-.01-.08-.01-.472.002-1.175l-.06-.278-.013-1.6-.04-.486.028-.268-.058-.308c.045-.236.06-.567.043-.99-.056-.61-.08-.944-.075-1.004l-.072-.19.03-.267c-.057-.427-.075-.922-.056-1.483-.05-.668-.068-1.174-.053-1.514-.094-.432-.152-1.03-.174-1.798-.024-.907-.05-1.513-.08-1.818l.045-.72-.04-.185v-.3l-.073-.16.044-.417-.035-.245.006-.935-.033-.245.042-.69-.095-.25-.005-.815-.057-.308c.026-.26.03-.66.006-1.207-.026-.524-.024-.927.005-1.206l-.008-.212.02-.18-.03-.304-.05-.095-.02-.666-.035-.245.002-.302-.053-.367.026-.24-.096-1.095-.12-.284-.012-.182.124-.32.036-.055.096-.052.308-.057c.137.035.296.05.477.05l.285.15.626.067.217-.038c.238.025.59.032 1.052.02.466-.03.807-.035 1.026-.012l.733-.074c.218.024.45.018.695-.017l.145.046.24.024.214-.038c.957.08 1.967.036 3.032-.134.98-.103 1.88-.23 2.7-.384z"/><path fill="#FFF" d="M75.674 58.63c-.04.198-.092.494-.155.89-.173 1.068-.288 1.68-.345 1.834-.225.62-.407 1.204-.546 1.75-.198.926-.325 1.475-.384 1.65-.063.216-.355 1.372-.877 3.47-.35 1.41-.683 2.56-1 3.453-.16.385-.262.676-.302.873-.035.137.016.233.15.288.077.048.202.09.378.13.395.08.973.122 1.738.122 1.9.1 3.105.125 3.612.078.287-.05.683-.08 1.186-.086.584-.02.99-.037 1.212-.054.512-.087 1.304-.155 2.375-.203l.95-.14c.02 0 .16-.005.423-.017.223-.017.357-.053.403-.11.068-.072.073-.212.014-.42-.097-.21-.162-.358-.195-.442l-.207-.897c-.165-.34-.278-.613-.337-.82-.05-.267-.16-.56-.33-.88-.05-.086-.094-.23-.134-.436-.06-.208-.104-.353-.135-.437-.05-.086-.142-.367-.273-.843-.1-.373-.312-.948-.633-1.726-.307-.716-.508-1.29-.603-1.722-.155-.62-.327-1.18-.516-1.683-.14-.78-.282-1.347-.425-1.704-.067-.13-.165-.44-.294-.937l-.073-.46c-.107-.132-.176-.24-.207-.324-.02-.385-.06-.67-.122-.858-.04-.185-.098-.302-.174-.35-.056-.026-.197-.03-.42-.014-.18 0-.46-.008-.84-.028-.358-.038-.64-.047-.843-.028l-.923.174c-.422-.004-.678.03-.766.1-.154.145-.283.413-.384.805z"/><path fill="#FFF" d="M77.944 57.422l-.15-.016c-.224.017-.387.05-.493.1-.18 0-.416.046-.708.137l-.21.008-.147-.045-.215.038-.165.133-.32.75c-.105.613-.272 1.53-.5 2.754l-.492 1.245c-.126 1.193-.32 2.088-.584 2.684l-.014.118c-.303.974-.467 1.58-.492 1.82-.02.198-.096.52-.223.97-.123.41-.196.724-.218.943l-.392 1.136-.074.415-.17.466-.058.265c-.22.58-.37 1.028-.442 1.342l.043.155.166.138c.39.122.822.208 1.3.258l.394-.02.21.023c.283-.03.723-.004 1.318.078l1.32.05.488-.04.507.053.338-.055c.596-.12 1.11-.125 1.542-.02 1.04-.152 1.967-.255 2.778-.31l.272-.002 1.862-.227.19-.07.104-.14-.005-.242c-.184-.722-.34-1.262-.462-1.616l-.2-.384c-.13-.476-.246-.83-.34-1.06l-.13-.225c-.047-.125-.076-.31-.092-.553-.095-.232-.19-.392-.28-.482-.228-.708-.388-1.288-.482-1.74l-.3-.575-.13-.496-.184-.262-.42-1.733-.155-.258c-.167-.52-.28-.954-.345-1.303l-.097-.22c-.04-.388-.117-.697-.234-.93l-.037-.216-.12-.284-.21-.897-.175-.32-.024-.063.028-.268-.244-.84-.107-.132-.208-.022-.782-.022-.205-.052-.242.005-.277.06h-.302zm-.155.315l.118.013.39.01.253-.094.15.015c.195.062.535.077 1.02.048l.088.04.17.68-.026.24.038.215.21.293.178.894.124.254.038.215c.08.19.16.5.234.93.125.334.28.863.466 1.585l.128.226.447 1.767.184.26.1.464.302.576.51 1.743.254.448.09.582.154.258c.033.063.118.304.255.72.09.29.187.523.29.694.08.19.15.5.204.927l.23.686-.034.027c-.204.02-.815.096-1.835.23l-.238-.025c-.344.024-1.27.128-2.778.31-.296-.05-.646-.066-1.05-.05l-.828.125-.507-.053c-.488.03-.99.036-1.512.022l-1.405-.118-.215.038-.176-.05-.424.017-1.154-.213-.028-.033c.07-.274.212-.68.43-1.22l.028-.27.204-.49.07-.386c.176-.525.307-.913.394-1.165.006-.24.07-.546.188-.916.147-.447.23-.75.246-.908.027-.26.196-.905.505-1.94l.017-.148c.324-1.173.516-2.047.577-2.623l.18-.555.313-.69c.227-1.204.393-2.112.497-2.724l.278-.634.033-.026.062-.024.12.013.272-.003.737-.134.22-.067.212-.01z"/><path fill="#F26522" d="M78.587 53.296c-.225-.727-.368-1.274-.43-1.643 0-.18-.018-.313-.05-.397-.042-.165-.135-.236-.28-.21-.103.03-.182.12-.24.276-.01.1-.033.228-.07.385-.03.097-.08.363-.145.8-.056.355-.124.62-.203.792-.124.207-.28.744-.473 1.61l-.076.443c-.027.078-.08.193-.155.346-.017.157.043.254.18.29.04.003.17.007.392.01.14-.005.4.002.78.022.36.018.615-.006.763-.07.695-.11.92-.437.676-.986-.375-.824-.597-1.38-.67-1.67z"/><path fill="#F26522" d="M78.246 51.09l-.107-.133-.203-.082-.182.01-.168.164-.187.342-.03.268-.083.233-.17 1.038-.087.263-.148.256c-.032.297-.135.7-.308 1.203l-.135.71-.152.286.005.24.103.162.2.112.818-.036c.04.004.14.005.3.002.123-.008.222.003.3.03l.086.04.06.007.336-.056.126-.046.364-.022.255-.124.17-.163.11-.2.006-.33-.113-.375-.13-.194-.108-.404-.106-.132c-.22-.606-.368-1.114-.444-1.524-.176-.42-.304-.936-.38-1.547zm-.523.396l.113-.23.066-.053.027.033c.078.592.207 1.098.382 1.52.09.49.245 1.02.467 1.586l.108.102.082.37.248.51-.02.178-.038.087-.102.11-.125.046-.367.052.014.152-.073-.158-.097.05-.244.034-.087-.04-1.42.003-.026-.034-.03-.003.007-.06.152-.286c.074-.314.108-.55.106-.713.187-.442.298-.833.334-1.17l.147-.257.094-.322.008-.36.27-1.15z"/><path fill="#231F20" d="M78.754 49.423l-.33-.307-.345-.157-.326-.065-.152.014-.466.13-.168.165-.177.253c-.08.193-.175.525-.285.995-.106.43-.21.752-.312.963l.004.24-.04.088-.144.226-.06.295-.19.372-.028.27c-.15.285-.268.634-.352 1.048l.014.152-.194.704-.03.57-.067.054-.03-.003-.11-.1-.09-.01-.098.08-.043.116.018.122.076.13.168.107.02.093-.018.18.016.122-.024.24-.082.202-.135.136-.058.266-.032.6c-.15.486-.252.777-.303.873l-.198.733c-.166.425-.27.746-.312.963l-.002.3-.112.2-.04.39-.392.862-.044.146-.005.333-.18.856.007.21-.227.73-.015.42-.187.344-.227.73-.102.11c-.124.79-.227 1.303-.312 1.536-.007.26-.058.637-.15 1.13-.03.118-.1.29-.204.522-.102.21-.172.384-.205.52l-.16.377c-.184.603-.272 1.066-.267 1.388l-.212.58c-.038.36-.135.902-.292 1.63l-.08.203c.014.244.006.414-.025.512l.072.46-.045.147.083.64-.036.63.03.306-.016.15-.098.35.02.366.16.5.028.304-.07.384.052.64-.022.208.045.427-.032.3c.037.244.043.475.02.694l-.056.235.117 1.19c-.024.237-.018.46.02.664l-.044.145-.007.06.046.126-.084.233c-.01.462-.035.81-.08 1.047.098.413.162 1.043.194 1.89l.08.37-.057.267.01.454.15.318-.032.298.068.22-.032.297.035.245c0 .563.005.895.015.997l.04.185c-.026.26-.047.65-.062 1.17l.045.428-.03.298.013.153.092.28c-.014.32.01.655.076 1.003l-.017.45.038.216-.028.268-.088.262c-.014.14.002.272.05.397l-.016.15c.05.266.08.67.083 1.215l-.068.355c.158.982.225 1.672.204 2.072l.04.185.05.125c-.036.138-.09.564-.167 1.28l.054.64-.04.356.018.124c.002.362.042.647.122.857l-.03.57-.082.2.014.153.12.285.086.914-.03.267.04.215-.06.84.153.558-.003.603c.04.205.056.518.052.94l-.012.12.127 1.37-.04.66-.05.176-.006.36c.065.53.085.914.06 1.153l.087.613-.075.444c-.016.14 0 .28.045.428-.037.338-.042.67-.014.994l-.02.18.184.832-.082.504.116.615-.077.446c.02.564.06.97.113 1.217l.024.636.07.19c.01.1.056.336.137.707.053.287.077.52.08.702l.042.156-.064.324.04.185.01.21.07.19-.07.386.065.52-.06 1.14c.04.206.04.496 0 .874l.222.747c.04.186.043.457.005.815l.056.337-.028.54c-.2.764-.193 1.458.023 2.084-.017.36.004.926.064 1.697l-.056.236.11.373-.065.928.052.368.044.156c-.054.295-.045.7.022 1.21.077.61.116 1.007.117 1.188l.072.16-.103.41-.026.24c.07.47.097 1.176.08 2.12l.063.247c-.02.2-.012.502.024.91l-.13.376-.006.36.175.35-.11.44.08.703.042.155c.072.27.11.504.108.705-.09.676-.024 1.556.205 2.646l.494.745.53.418.23.084.2.11c.196.062.497.154.907.277l.676.162.394-.018c.258.047.618.154 1.083.324l.657.068.46-.07 1.104.115.912-.055.416.042.617-.115.683.102c.654-.094 1.145-.182 1.476-.268.364-.02.67-.07.92-.145l.236.055.83-.154c.416-.136.733-.275.95-.413.334-.126.826-.304 1.472-.538l.3-.27.635-.296.13-.105.146-.226.24-.55c-.025-.727-.017-1.28.023-1.657l-.142-.95c-.08-.974-.094-1.688-.046-2.146l-.025-2.356c-.017-.022-.052-.256-.107-.703.05-.66.04-1.143-.027-1.452l.018-.18c-.035-.425-.093-.743-.172-.952.023-.42.012-.975-.037-1.663-.062-.953-.094-1.507-.097-1.67l-.104-3.027-.038-.215v-.3l-.067-.22.042-.69c-.046-.708-.08-1.235-.105-1.578l.022-.21c-.04-.185-.053-.446-.037-.79-.002-.36-.015-.622-.037-.786l-.045-.156-.04-.758c.037-.358-.012-1.328-.147-2.91l.016-.15c-.042-.748-.062-1.133-.06-1.153l.048-.447c-.052-1.232-.073-2-.06-2.3l-.085-.64.013-.12-.065-.25.04-.66-.04-.184c.01-.48-.013-.836-.07-1.063l.027-.54-.05-.397.022-.48-.165-1.586.054-.237-.037-.215c.037-.176.043-.598.01-1.266l-.073-.158.032-.872-.096-1.097-.047-.125c-.01-.282 0-.502.04-.66l-.123-.556c0-.563.014-.994.046-1.293-.07-.69-.084-1.416-.043-2.174l-.09-.282c.044-.618.02-1.355-.07-2.21-.022-.946-.08-1.636-.175-2.068.038-.56.003-1.177-.107-1.852l.016-.15-.02-.092c-.007-1.267-.03-2.094-.07-2.48l.02-.48-.04-.186-.03-.878-.08-.1.053-.205.006-.36-.06-.28c.008-.48-.003-.844-.037-1.09l.05-.476-.04-.185-.003-.272.05-.206.006-.904-.07-.46-.07-.218.005-.905-.082-.37.024-.24-.01-.18.015-.15c-.067-1.274-.148-2.228-.242-2.86l.043-.992-.006-.514c-.054-.83-.14-1.45-.256-1.866l-.016-.424.063-.325-.004-.242-.114-.344-.03-.305c-.098-.393-.156-.69-.176-.894-.113-.453-.178-.802-.192-1.045l-.07-.188-.162-.198-.193-.172c-.108-.514-.217-.898-.333-1.15l-.107-.133c-.138-.417-.25-.7-.332-.85l-.47-1.285c-.01-.263-.138-.69-.378-1.277l-.08-.4-.983-2.97c-.17-.3-.283-.562-.34-.79l-.12-.284c-.095-.453-.295-1.128-.603-2.025-.31-.877-.51-1.552-.6-2.024l-.537-1.503c-.167-.52-.276-.904-.332-1.15l-.045-.156-.03-.274-.24-.598-.01-.183-.148-.317-.49-2.223-.12-.314c-.233-1.21-.467-2.05-.698-2.516l-.34-.52zm-.72 1.673l.054.066c.074.632.202 1.138.383 1.52.088.51.245 1.03.47 1.556l.077.13.11.403.13.195.117.314v.27l-.074.144-.135.137-.192.1-.394.02-.126.047-.304.03-.117-.044-1.418.002-.117-.043-.05-.095.016-.15.15-.285.106-.713c.135-.33.246-.72.334-1.173l.118-.26.094-.32.037-.36c.055-.134.097-.35.13-.65l.083-.23.028-.27.152-.286.13-.106.09.01.118.042zm-.257 6.46l.146.044.36.008.252-.094.21.022.205.052c.503-.008.764-.01.785-.008l.148.015.054.066c.11.475.174.733.19.775v.272l.018.122.18.29.208.896.122.285.036.216c.086.15.164.46.234.93.127.333.274.852.44 1.554l.154.257.42 1.734.185.26.132.468.3.604.512 1.713.253.48.092.552.153.257c.243.75.425 1.222.545 1.415l.202.955.233.658-.017.15-.036.056-.124.046c-.203.02-.815.096-1.834.23l-.24-.025-2.778.312c-.374-.08-1-.055-1.88.074l-.506-.053c-.528.045-1.03.052-1.51.022-.14.005-.422-.014-.838-.058-.34-.036-.61-.044-.813-.025l-.18-.02-.424.017c-.438-.047-.84-.13-1.21-.25l-.084-.068-.02-.093.406-1.285.06-.266.202-.492.04-.388c.1-.19.23-.57.39-1.135.023-.22.097-.523.217-.913.126-.43.2-.743.22-.942.02-.18.196-.814.532-1.905l-.018-.122c.238-.538.44-1.432.614-2.68l.464-1.25c.05-.274.225-1.182.526-2.72l.284-.693.1-.08.122-.017.15.015.24-.005.737-.133.218-.068.22-.037zm1.94 17.126l1.455-.06c1.694-.243 2.665-.392 2.912-.447l.298.032.368-.052.23.114.053.065.057.308.2.655c.01.12.073.57.192 1.347l-.012.12.09.582-.073.686c.06.368.088.784.08 1.245l.088.31-.02.18.043 1.03.04.185.05.97.058.31-.037.357.08.37-.002 1.448c.084.35.15.88.194 1.59l-.034.327.1 1.066-.036.33.045.155.027.606.044.157-.016.45.12.556-.11.773.028.304-.04.388.1.192-.01.09-.123.318.145.347.01.484-.048.446.097.222.01.212-.05.176-.015.15.087.31-.086.534.04.185-.058.265.07 1.636.05.368-.024.238.036.245-.033 1.173.045.156c.14.76.192 1.327.152 1.706l.06.278.03.576.05.126-.013.39c.085.352.128.9.13 1.645l.04 1.058.04.186-.08.475.09 1.156-.02.18c.008.123.013.374.013.755-.014.32 0 .574.04.76-.052.314-.028.74.078 1.273l-.022.208.126 1.1-.043.115.11.707-.03.268.032.848.035.245-.052.206c.07.31.087.6.058.88l.04.186c-.028.278-.015.53.042.758v.572l-.042.117.045 1 .052.368c-.025.238-.025.62 0 1.146l-.045.147c.048.69.07 1.043.07 1.062l.024 1.208-.03.27c.03.303.04.777.032 1.42l.178 1.466.067.22.008.213c-.054.135-.067.263-.04.387l.05.095.068.22-.04.386.01.484.066.22-.02.177.005.242-.025.238.08.674-.047.447.055.337.077.13-.01.086-.048.176c.026.144.022.365-.01.663l.092.28-.013.12.08.4-.026.24-.15.284-.015.15.017.122.127.224-.017 1.024-.043.117c.025.142.022.364-.01.66l.095.253-.012.693.078.4-.054.237.037.215-.02.18.07.49-.06.295.098.492.08.1.04.214c-.022.2-.01.37.035.517l-.035.33.065.248c-.055.515.03 1.23.257 2.14v.27c.098.413.093.953-.018 1.627l.013 1.025-.057.267c-.27.454-.475.783-.617.99l-.13.076-.403.11c-.474.29-.98.53-1.523.713l-1.288.197c-.606.22-1.313.345-2.123.38-.322.007-1.044 0-2.17-.018l-.26-.116-.148-.017-.405.108-.397.05c-.316-.053-.644-.088-.984-.104l-.735.104-.088-.04-.067-.217-.057-.037-.27-.028-.277.06-.208-.02-.256-.15-.553-.178-.226-.144-.18-.02-.053-.065-.097-.22-.237-.327-.024-.064.108-.17.03-.27c-.067-.326-.107-.813-.118-1.46l-.045-.154.017-.15c-.08-.41-.128-.797-.15-1.16l.022-.21-.042-.185-.082-2.09-.035-.244c.036-1.284-.02-2.485-.163-3.607l.027-.542c-.102-.553-.13-1.45-.08-2.693-.012-.062-.033-.244-.063-.548l-.035-.79-.037-.215-.046-1.573.084-.233-.07-.19c.007-.26.035-.528.084-.804l-.056-.337-.157-.23-.016-.423.077-.143.05-.176-.076-.732-.065-.218-.036-.517c.03-.32.037-.56.013-.723l.013-.12-.05-.667.048-.176c-.028-.303-.027-.606.005-.904-.055-.247-.078-.613-.067-1.093l-.1-.493.055-.236c-.02-.385-.05-.67-.09-.853.02-.198.012-.41-.025-.636l.025-.24-.032-.274.045-.147c.01-.28-.023-.635-.097-1.065l.025-.24-.093-.552-.002-.845-.06-.277-.02-.966-.05-.096-.06-.578.025-.24-.047-.124-.072-1.033.025-.24-.04-.184.04-.388-.06-.307.042-.388-.03-.276-.066-.247.035-.328-.018-.122.026-.24c-.02-.385-.042-.67-.063-.85l-.037-.217-.016-.423.05-.177-.027-.333-.047-.125-.017-.122.067-.355.01-.09-.005-.24-.07-.19-.033-.275c.05-.275.092-.482.126-.62l-.192-.743.075-.143.01-.09-.1-.192.005-.06.13-.38.012-.118-.05-.368.068-.657-.11-.402.05-.178.03-2.017-.06-.278-.013-1.6-.044-.155.023-.21-.018-.122.03-.268-.06-.308.025-.24c-.037-.405-.056-.99-.056-1.754l-.102-.192.028-.267c-.033-.446-.045-.91-.033-1.392-.047-.707-.06-1.242-.043-1.602-.115-.434-.173-1.034-.173-1.798-.026-.887-.062-1.494-.11-1.82l.076-.717-.04-.185-.002-.272-.073-.16.048-.446-.035-.245-.05-1.544c.032-.096.043-.206.036-.327l-.07-.218c-.032-.265-.032-.547 0-.845l-.088-.31c.05-.277.06-.678.035-1.204-.023-.545-.02-.947.007-1.206l-.038-.215.022-.21-.005-.24-.053-.066-.014-.727-.037-.215.003-.33-.053-.37v-.27l-.1-1.067-.093-.25-.005-.242.13-.378.073-.113.16-.074.366-.052.48.05.314.155.598.063.184-.04c.18.018.532.015 1.058-.01.425-.036.766-.03 1.023.017l1.458-.088.355.067.218-.067c.2.024.654.02 1.36-.005z"/></g><g><path fill="none" stroke="#059" d="M101.76 64.65c.38.067.667.087.87.06l.427-.09c.08-.014.196.044.348.175.274.08.595.092.96.037.704-.05 1.295-.04 1.772.034.137.03.43.03.872 0 .378.027.61.144.696.35.16.312.177.914.055 1.81-.067.395-.038.978.09 1.75.11 2.132.165 3.35.165 3.65-.01.12.012.692.06 1.718.006.2.027.473.063.816-.07.416-.102.735-.098.956.12 1.452.12 2.594.002 3.428l-.092.866c0 .02.03.303.092.848.013.08-.027.39-.125.924l.003.842c0 .26-.01.86-.037 1.802-.013.76.006 1.364.055 1.808.012.403.002.682-.03.84l-.088.415c.013.08.064.214.152.4.013.382-.008.972-.064 1.77.06 1.73.062 2.832.01 3.31-.014.2.007.47.062.816l-.003.48c-.026.1-.077.237-.148.412l.18 1.697c.006.802.022 2.006.05 3.612.033.965.043 1.537.03 1.717l-.067.957c-.027.4-.02.722.024.966.03.142.034.392.006.752l-.043 1.05c-.028.4-.03 1-.006 1.804-.014.2-.014.49 0 .872.014.362-.026.65-.12.865-.072.153-.092.292-.06.415.013.1.043.244.09.427.028.18.03.453.004.81.01.123.022.263.03.425.012.12-.006.25-.057.387-.05.157-.09.435-.118.833-.033.2.017.472.152.824.006.202-.035.51-.124.923l-.088.416c-.008.1.043.222.153.37.014.082-.005.21-.056.387l.03.424-.132 1.885c-.044.64-.06 1.27-.043 1.893.012.12 0 .42-.032.9-.024.358-.016.66.027.903.09.45.088 1.05-.006 1.806-.05.418-.04 1.03.022 1.836-.007.38-.038.96-.092 1.738.01.14-.008.41-.055.808-.046.337-.045.607 0 .81.094.408.078 1.05-.042 1.922-.01.4.012.984.058 1.75.013.4.002.692-.03.87-.004.06.006.21.028.452.007.18-.022.33-.09.445-.134.19-.395.333-.783.426-.53.124-.825.203-.89.24-.206.105-.493.185-.858.24-.487.087-.792.146-.913.177-.37.115-.965.162-1.787.145-.3-.02-.69-.017-1.172.01-.603.037-.996.06-1.177.066l-2.53.066c-.446.05-1.033-.002-1.765-.154-.55-.14-.837-.21-.856-.21-.334-.123-.562-.29-.687-.5-.054-.103-.074-.236-.064-.394.034-.18.053-.318.06-.418-.07-.405-.122-.7-.148-.882.01-.74.02-1.292.025-1.652-.124-.812-.153-1.393-.09-1.752.08-.274.08-.544-.003-.812-.066-.205-.066-.485-.002-.842.034-.197.004-.76-.09-1.69-.05-.144-.083-.266-.096-.367l.115-.354.035-.48c.024-.058.017-.11-.02-.152l-.11-.128c-.033-.103-.016-.222.055-.357.05-.136.077-.246.082-.325-.092-.126-.135-.22-.13-.28.003-.04.027-.107.074-.205.046-.077.06-.146.044-.207-.158-.313-.21-.576-.155-.793.006-.08.065-.197.175-.35.068-.115.097-.232.086-.354-.014-.1-.065-.227-.156-.373-.09-.126-.143-.24-.156-.342.09-.174.14-.3.148-.38-.028-.182-.047-.333-.06-.456.004-.34-.016-.613-.062-.816-.08-.266-.09-.558-.03-.874.037-.22.048-.518.033-.9-.008-.442-.007-.752.006-.932.115-.794.112-1.336-.008-1.625-.035-.063-.026-.192.027-.39.035-.237.058-.386.06-.447-.013-.1.007-.24.06-.416.033-.2.044-.348.03-.45-.013-.382.008-.97.065-1.77l-.005-1.653c-.024-.222-.023-.524.003-.902.032-.46.043-.76.033-.9.053-.76.084-1.34.092-1.74-.03-.463-.03-.754 0-.87.09-.417.077-.686-.034-.815.084-.055.123-.172.115-.354-.008-.18-.01-.31-.004-.39l.122-.894c.027-.098.025-.358-.004-.782l.058-.838c-.014-1.504.004-2.637.057-3.395.053-.477.066-1.098.04-1.86-.01-1.024-.016-1.656-.02-1.897l-.03-.844c.045-.358.064-.627.057-.808.038-.84.04-1.46.01-1.864.058-.838.072-1.46.04-1.862-.017-.623-.002-1.263.044-1.922l.25-6.99c-.024-.803-.022-1.404.005-1.803.057-.798.077-1.398.066-1.8-.027-.744-.028-1.295-.003-1.654.055-.518.076-1.088.06-1.71-.033-.404-.033-.975 0-1.715.034-.8.044-1.37.028-1.712-.01-.422.033-1.04.13-1.855.12-.853.15-1.432.09-1.737-.12-.87.074-1.338.58-1.403.526-.064 1.135-.04 1.83.068.06.004.197.044.41.12.158.07.285.1.387.086.2-.006.495-.046.88-.12.98.03 1.57.03 1.774.005.18-.008.47.022.865.09z"/><path fill="#FFF" d="M98.997 48.7l-1.15 4.4c-.006.1.004.23.033.392.05.164.06.285.034.364-.036.238-.107.523-.21.857-.073.195-.184.478-.33.85-.49 1.55-.878 2.664-1.167 3.346-.072.174-.152.46-.24.854-.086.375-.175.66-.27.853l-.312 1.03c-.005.08-.044.21-.117.384-.052.178-.062.307-.027.39.067.185.6.313 1.597.382l1.732.18c.398.028 1 .04 1.802.036 1.156.08 1.805.117 1.947.106.34-.035.952-.023 1.83.038.78.035 1.384.007 1.81-.084.28 0 .73.02 1.35.065.18-.028.28-.16.298-.4.014-.2-.034-.394-.14-.582-.16-.29-.322-.703-.485-1.236-.178-.613-.32-1.034-.423-1.262-.19-.715-.374-1.25-.55-1.602-.085-.207-.246-.78-.48-1.718-.044-.224-.228-.768-.548-1.632-.273-.68-.405-1.242-.393-1.682-.013-.12-.064-.245-.155-.37-.13-.19-.2-.306-.217-.347l-.307-.773c-.05-.444-.096-.778-.14-1.002-.013-.08-.076-.196-.186-.344-.108-.167-.17-.29-.184-.373l-.292-.982c-.16-.292-.264-.53-.31-.714-.126-.49-.218-.756-.275-.8-.057-.044-.185-.073-.386-.087l-.39-.027c-.848-.2-1.49-.205-1.922-.014-.25.123-.446.34-.587.65-.05.138-.13.423-.24.857z"/><path fill="none" stroke="#FFF" d="M98.997 48.7c.11-.435.19-.72.24-.857.143-.31.338-.528.587-.65.434-.19 1.076-.186 1.923.014l.39.027c.2.014.328.043.386.087.057.045.15.312.274.802.048.184.15.422.31.714l.293.982c.014.082.076.206.184.374.11.148.172.263.187.344.044.224.092.558.14 1.002l.308.774c.017.04.09.156.216.346.09.126.143.25.155.37-.013.44.12 1.002.392 1.683.32.865.504 1.41.548 1.633.234.94.395 1.51.48 1.718.176.354.36.887.55 1.603.104.228.245.65.423 1.262.164.533.325.945.485 1.237.106.188.154.382.14.58-.017.24-.117.374-.3.402-.62-.044-1.067-.065-1.348-.065-.426.09-1.03.118-1.81.083-.878-.06-1.49-.074-1.83-.038-.143.01-.792-.025-1.948-.106-.803.003-1.403-.01-1.803-.036l-1.733-.18c-.997-.07-1.53-.198-1.596-.383-.034-.082-.024-.21.028-.388.073-.175.112-.303.117-.383l.313-1.032c.094-.193.183-.478.27-.853.087-.395.167-.68.24-.855.288-.682.677-1.797 1.166-3.347.146-.37.257-.654.33-.85.103-.333.173-.618.21-.856.026-.08.015-.2-.034-.364-.03-.162-.038-.293-.032-.393l1.15-4.4z"/><path fill="#059" d="M100.01 45.4c.265.24.713.282 1.345.125.36-.014.596-.068.702-.16.13-.112.154-.33.076-.657.02-.26.012-.45-.02-.573l-.154-.793c-.086-.507-.212-.997-.38-1.47-.268-.74-.542-.99-.82-.75-.17.13-.286.362-.35.698-.032.18-.07.437-.114.774-.082.315-.167.81-.254 1.486-.193.75-.202 1.19-.03 1.32z"/><path fill="none" stroke="#059" d="M100.01 45.4c-.17-.13-.16-.57.033-1.32.087-.675.172-1.17.254-1.486.044-.337.082-.594.115-.773.063-.336.18-.568.35-.697.277-.24.55.01.82.75.167.472.292.962.378 1.47l.155.792c.032.122.04.313.02.573.077.326.052.545-.077.656-.106.093-.34.147-.702.16-.634.158-1.082.116-1.345-.123z"/><path fill="#059" d="M101.76 64.65c-.395-.068-.683-.098-.863-.09-.204.026-.794.024-1.774-.004-.387.073-.68.113-.88.12-.1.012-.23-.017-.386-.088-.215-.075-.353-.115-.41-.12-.696-.108-1.307-.13-1.83-.067-.507.066-.7.534-.58 1.404.058.305.028.884-.092 1.738-.097.815-.14 1.434-.13 1.855.016.342.008.913-.028 1.712-.032.74-.033 1.31 0 1.714.017.622-.004 1.192-.06 1.71-.023.36-.023.91.005 1.654.012.402-.01 1.002-.066 1.8-.027.4-.03 1-.006 1.804l-.248 6.99c-.046.658-.06 1.298-.044 1.92.03.404.018 1.025-.04 1.863.03.403.03 1.024-.01 1.864.006.18-.012.45-.057.807l.032.844c.003.242.01.874.018 1.897.027.764.013 1.384-.04 1.862-.053.756-.07 1.89-.057 3.393l-.058.838c.03.425.032.685.004.783l-.123.894c-.005.08-.004.21.003.39.007.182-.03.298-.115.354.11.13.124.4.033.815-.028.117-.028.408 0 .872-.008.4-.04.98-.09 1.738.01.142-.002.44-.034.9-.026.38-.027.68-.003.903l.006 1.654c-.057.798-.078 1.387-.064 1.77.013.1.002.25-.032.45-.052.175-.072.315-.058.415-.005.06-.026.21-.062.448-.054.197-.064.326-.027.39.12.288.123.83.007 1.624-.013.18-.013.49-.006.93.014.384.003.683-.032.9-.062.317-.052.61.03.875.045.203.065.476.062.816.012.123.03.274.06.457-.007.08-.057.205-.15.38.014.1.066.215.157.34.092.148.143.273.157.373.01.122-.018.24-.086.355-.11.152-.168.27-.174.35-.054.216-.003.48.155.792.017.06.003.13-.044.208-.046.097-.07.165-.074.205-.004.06.04.153.13.28-.004.08-.032.188-.08.324-.072.135-.09.254-.057.357.02.02.056.064.11.13.038.04.045.092.02.15l-.033.48-.115.354c.013.1.045.223.095.368.095.93.126 1.492.09 1.69-.063.357-.063.636.003.84.082.27.082.54.004.814-.065.357-.037.94.088 1.75l-.025 1.653c.026.182.075.476.148.88-.006.1-.025.242-.058.42-.01.158.01.29.064.393.124.21.353.377.687.5.02 0 .305.07.856.21.73.152 1.318.203 1.763.154l2.53-.065c.182-.005.575-.03 1.18-.067.48-.026.873-.03 1.17-.01.823.018 1.417-.03 1.787-.144.122-.03.426-.09.913-.176.365-.055.65-.135.86-.24.063-.036.358-.116.89-.24.386-.094.647-.236.782-.426.067-.116.097-.264.09-.445-.022-.242-.032-.393-.03-.453.035-.178.045-.47.032-.87-.046-.765-.066-1.35-.058-1.75.12-.872.135-1.512.042-1.92-.045-.205-.047-.474-.002-.81.047-.4.066-.67.055-.81.054-.778.085-1.357.092-1.737-.064-.806-.072-1.418-.022-1.836.094-.755.095-1.357.006-1.805-.042-.244-.05-.545-.026-.903.034-.48.045-.78.032-.9-.016-.624 0-1.255.043-1.894l.13-1.884-.03-.424c.05-.176.07-.305.056-.387-.11-.147-.16-.27-.154-.37l.09-.416c.09-.413.13-.72.123-.922-.136-.35-.187-.624-.152-.824.027-.398.068-.676.12-.833.048-.137.067-.265.056-.387-.01-.16-.02-.302-.032-.424.025-.358.024-.63-.004-.81-.047-.185-.077-.327-.09-.428-.03-.124-.01-.262.06-.416.094-.215.134-.502.12-.865-.013-.382-.013-.672 0-.872-.022-.804-.02-1.404.007-1.805l.044-1.048c.026-.36.023-.61-.006-.753-.043-.243-.05-.565-.024-.965l.067-.956c.014-.18.004-.752-.03-1.718-.026-1.606-.043-2.81-.048-3.612l-.183-1.697c.072-.176.122-.313.147-.41l.004-.483c-.055-.345-.075-.617-.06-.817.05-.477.048-1.58-.01-3.308.055-.8.076-1.39.063-1.77-.088-.187-.14-.32-.152-.402l.09-.415c.03-.158.04-.438.03-.84-.05-.444-.068-1.047-.056-1.808.026-.94.037-1.54.037-1.802l-.002-.842c.098-.535.14-.842.125-.924-.062-.546-.092-.83-.092-.85l.093-.865c.118-.834.117-1.976-.002-3.428-.003-.22.03-.54.1-.956-.037-.342-.06-.614-.065-.815-.047-1.026-.07-1.6-.06-1.718 0-.3-.053-1.518-.165-3.65-.126-.772-.156-1.355-.088-1.75.122-.895.104-1.498-.055-1.81-.086-.206-.318-.323-.697-.35-.443.03-.735.03-.872 0-.477-.073-1.068-.085-1.773-.034-.364.055-.685.043-.96-.037-.15-.13-.266-.19-.347-.174l-.428.09c-.202.025-.49.005-.87-.062z"/><path fill="#231F20" d="M100.12 39.966c-.148.11-.427.36-.834.753l-.172.318.01.27c-.325.94-.514 1.64-.566 2.097l.047.605-.044.207-.172.32-.045.236.06.396c-.12.592-.233 1.055-.336 1.39-.227.384-.426.94-.6 1.67l.015.242-.167.68c-.32.86-.496 1.35-.524 1.467-.1.313-.257.803-.463 1.47l-.093.475.007.332-.24.464-.093.445c-.017.24-.064.477-.14.712.003.24-.048.518-.15.832-.053.196-.133.47-.237.824-.284.622-.456 1.212-.515 1.77l-.274.912-.307.52-.01.15.017.18-.144.352-.214.917c-.054.197-.178.54-.374 1.027l-.065.506-.29 1.123.078.608c-.093.494-.14.752-.142.772l.074.636c-.033.2-.055.658-.065 1.38l-.044.207.082.547.002.392-.085.355.073.245.03.424-.055.357c-.005.06.004.24.023.542l-.102 1.016c-.008.702.005 1.374.04 2.018l-.064.477c-.012.48-.072 1.188-.177 2.123l.004.36.074.218.082.126-.132 1.464.048.184-.093.475-.013.18c-.05.176-.104.624-.154 1.342l.04.303-.038.54-.13.56-.014.21.043.244-.06 1.71.08.156-.092.475c.017.322.01.552-.018.69l.045.214.075.215-.088 1.257.065.365-.034.48.04.303-.027.39.115.488-.013.21.038.303-.038.54-.082.324.034.393c0 .28-.04.69-.117 1.225l-.022.75c.08.266.125.5.13.7.07.166.1.298.092.398l-.094.505-.21.436.05.546.154.402-.036.51.012.27-.01.15.073.667-.027.39.142.55-.023.33-.08.294-.108.684.017.182-.058.416.074.667-.084.775.07.695-.02.33-.088.385-.117 1.676.028.454.087.488-.06.868-.044.177.062.424-.098.536.024.514-.194 1.068.048.606.096.336-.087.386.02.15.05.126.007.33.075.217-.005.51-.127.502.08.576.052.125.04.273c-.087.395-.116.793-.083 1.197l-.02.268.015.213-.12.833.04 1.177.105.638c.03.164.017.323-.034.48l.08 1.027-.01.15c-.053.177-.074.467-.06.868l-.083.717-.005 1.383c.03.423.054.666.07.727l.018.6-.157.954c.047.745.053 1.227.017 1.444l.044.244-.05.297.02.154.05.153-.065.478c.092.707.09 1.43 0 2.165l.035.333c-.025.08-.034.488-.025 1.23l.114.52-.093.445v.422l.045.213-.064.507.002.39.07.305-.004.902.117.49.01.27.05.185.138.16.816.81.206.074 1.878.22.354.116 1.02.04.465.214.24.018.788-.095.398-.094.354.085c.343-.015.846-.05 1.512-.105.626-.055.99-.1 1.092-.133l.926.095.577-.08.15.01.462-.178.24-.015c.123-.01.302-.01.542.008.47-.108 1.19-.248 2.164-.42l.455-.06.435-.178.334-.037.532-.293.222-.165.376-.215.13-.14.04-.12v-.45c.09-.715.138-1.244.14-1.583-.027-.164-.04-.686-.04-1.567-.058-.306-.087-.76-.085-1.36l-.043-.244c.057-2.24.07-3.723.04-4.446l.015-.21-.038-.725.037-.57-.02-.12.008-.15-.027-.454.013-.208-.013-.21.05-.268-.045-.666.13-1.854c.007-.66.026-1.09.06-1.29-.05-.424-.05-1.306.004-2.644l-.086-.49.02-1.98.043-.208c-.006-.502.027-1.263.098-2.28l-.04-.274.056-.357c-.036-.924-.035-1.506 0-1.744l.01-.12c0-.862.013-1.35.042-1.47l-.105-1.09c-.012-.683.004-1.193.047-1.53-.037-.323-.055-.496-.053-.517.056-.515.08-1.296.073-2.34.014-1.04.037-1.82.074-2.34l-.036-.333.03-.87-.017-.182c.013-.36.02-.892.01-1.594-.03-.724-.033-1.255-.01-1.595-.044-.222-.032-.542.038-.958l-.013-.272.06-.417-.073-.245.056-.357-.033-.393.027-.39c-.06-.284-.08-.696-.065-1.236.02-.58.01-.99-.034-1.234.03-.72.068-1.248.11-1.586l-.055-.485-.1-.277c-.02-.603-.008-1.044.03-1.32l-.043-.245c.07-.396.088-.956.06-1.68l-.062-1.72.097-.953c-.144-.812-.122-1.983.065-3.514.036-.218.055-.497.06-.838-.023-.543-.034-.824-.032-.844.037-.54.03-1.16-.02-1.866-.018-.322.014-.91.094-1.768.05-.738.04-1.33-.028-1.776-.07-.446-.087-1.06-.053-1.838.043-.9.047-1.52.01-1.864l-.045-.214c.072-.456.08-.856.025-1.2l-.076-.217.043-1.018-.02-.122-.27-.44-.094-.4-.16-.31c-.06-.285-.2-.746-.414-1.383-.16-.612-.296-1.063-.417-1.352-.213-.957-.48-1.758-.796-2.402-.013-.1-.068-.306-.167-.613l-.133-.25c-.28-1.143-.542-1.993-.783-2.55l-.165-.644-.103-.248-.114-.52-.135-.22-.067-.335-.482-1.718-.08-.126-.324-1.407-.202-.555.01-.15c-.293-.662-.535-1.37-.723-2.125l.01-.15-.36-1.288-.012-.272c-.32-.884-.574-1.824-.766-2.82l-.336-.775-.36-.446-.117-.04-.056-.063-.02-.123-.115-.098c-.293-.102-.62-.164-.98-.19l-.793.216zm.918 1.056l.116.07.17.16.134.22.037.334.128.31.066.365c.084.208.234.78.45 1.717-.03.138-.038.268-.026.39l.106.638-.04.117-.096.084-.337.097-.39.002-.368.095-.39-.027-.533-.128-.114-.098-.05-.154.057-.808c.077-.235.14-.57.19-1.01.076-.495.14-.84.194-1.04l.025-.358.12-.443.27-.432.13-.11.148.01zm-2.226 8.626l.033-.48.398-1.384.105-.204.383-.334.096-.053c.93-.116 1.83-.073 2.7.128l.056.035.29 1.013.188.314c.138.33.303.843.494 1.538l.193.254c.063.245.12.6.167 1.065l.33.864.114.098.19.314.023.513c.128.47.33 1.165.607 2.086l.078.186.195.224.016.182.29 1.463c.068.167.225.498.47.997l.106.64c.16.29.35.735.57 1.332l.102.667.16.282.098.337.233.527.093.398.002.39-.128.112-1.5-.074-.334.066c-.64-.044-1.34-.043-2.105.004l-.118-.04c-1.944.006-3.406-.036-4.382-.125-.1.013-.45 0-1.05-.043-.752-.133-1.32-.183-1.703-.15-.433-.11-.75-.192-.945-.246l-.055-.064-.052-.124c.044-.338.18-.84.406-1.505.228-.666.363-1.168.405-1.505.205-.648.388-1.116.55-1.406l.077-.265c.233-.765.433-1.323.598-1.672.123-.312.302-.85.535-1.617l.165-.65-.12-.43c-.007-.2.04-.447.14-.74.105-.335.173-.59.205-.77l.07-.144c.282-.883.47-1.55.562-2.006zm6.067 15.16c.5-.025.932-.005 1.288.06l.302-.04.392-.002.35.145.387.058.056.065.076.185.114.97-.115 1.647.067.335-.01.18.063.365-.008.54.09.458-.028.39.123.82-.055.357c.073.386.11.99.114 1.812l-.02.27.037.333-.027.39.088.456-.122 1.316c.032.122.08.456.14 1.002l-.08.716.02.994-.043.208.017.18c-.044.32-.108.806-.193 1.46l.165.644c-.102.294-.148.662-.137 1.104-.02.26-.015.63.01 1.113-.113 1.055-.11 1.867.01 2.437l-.036.538.076.637-.093.474-.075.205-.007.09.13.31.038.302-.064.477.052.123.007.33-.085.356.03.452-.043.178.017.18.094.37-.017.238c.04.284.043.534.007.752l.04.274-.13 1.434.105.218c-.035.198-.056.488-.062.868l-.11.263-.003.06.123.4c-.022.32.003.66.078 1.027l-.018.27.04.273.03 1.296-.07.565.096.79-.036 1.802.04.303-.133 1.884.093.4-.06.444.047.185c-.028.4-.05 1-.067 1.8.044.524.048 1.327.012 2.407l-.043.208-.143.322-.044.208.19.705-.056.387.02.12.014.243.076.215-.013.18-.112.323-.01.57-.074.206-.043.177.02.15.106.22.033.362c-.1.554-.144.902-.134 1.044l-.08.294.05.125.082.126.023.12-.053.327.037.334-.096.505.04.724-.148 1.704.045.213.007.752-.058.386c0 .02 0 .282.007.783 0 .3.022.552.067.755l-.01.15c.06.586.038 1.466-.064 2.642l.047.183-.07.99.046.21c.006.2-.024.48-.088.837l.01.27-.094 1.347.114.52-.117 1.675.047.212-.045 1.08.064.366c.038.324.023.693-.046 1.11l.068.304-.01.15-.04.12-.165.23-.126.08-.588.23-.642.135c-.188.107-.395.184-.618.228-.445.068-.955.184-1.527.343-.588.08-1.21.106-1.87.08l-.156.048c-.197-.032-.458-.02-.784.036l-.177-.043c-1.085.044-1.888.058-2.41.04-.16.03-.665.065-1.51.106l-.18-.012-.362.035-.623-.135-.205-.075c-.3-.02-.77-.185-1.408-.49l-.163-.25-.04-.305.07-.536-.124-.402.01-.118-.057-.485.053-.328c-.033-.383-.037-.763-.01-1.143l-.017-.182.008-.15-.047-.183.022-.3-.043-.245.04-.148-.022-.12.01-.15-.043-.245.05-.267-.03-.453-.048-.154-.062-.425.107-.232-.02-.152.043-.177-.086-.486.04-.177-.09-.878-.076-.188-.016-.182.112-.322.066-.506-.024-.092-.14-.16-.01-.273.006-.088.1-.145.037-.088.006-.09-.134-.22.004-.06.14-.26.005-.09-.074-.216-.012-.24-.093-.398.04-.118.16-.17.074-.175-.035-.393-.132-.25-.114-.097-.055-.094.01-.12.14-.32.018-.24-.076-.186.006-.09.04-.118.01-.15-.08-.155-.1-1.15.08-.325c-.05-.406-.06-.716-.024-.935l-.013-.24.038-.12-.014-.21.054-.327-.042-.273.04-.148-.016-.183.085-.356-.048-.152-.017-.18-.05-.156.103-.593-.034-.396.08-.295.025-.36-.013-.24.046-.24-.02-.15.052-.72-.043-.243.087-.385-.06-.455.047-.238-.047-.185.108-.264-.023-.09-.083-.126.01-.12.04-.15c-.015-.08-.006-.35.026-.808l-.067-.335.044-.208-.03-1.264.075-.205.04-.57c-.018-.06-.014-.262.01-.6l-.015-.21c.052-.16.07-.407.053-.75l-.025-.092-.058-.033.03-.027.07-.086.02-.3c-.034-.383.005-.81.12-1.283l-.02-.152.02-.72c.1-.854.107-1.546.025-2.072.048-.117.056-.237.024-.36l.044-.207c-.037-.325-.022-.684.047-1.08-.02-.282.003-.902.07-1.86l-.034-.393c-.045-.204-.054-.505-.025-.904l-.085-.517.06-.447-.04-.275.05-.297-.036-.333.064-.477c.03-1.02.034-1.782.008-2.285.057-.237.07-.847.04-1.832-.02-.6-.007-1.212.036-1.83l-.04-.274.048-.267-.01-1.566-.05-.154.013-.18.08-.294-.037-.334.053-.327c.03-.74.05-1.3.057-1.68l.04-.147.01-.57.087-.386-.01-1.143c.036-1.362.048-2.103.036-2.224l.043-.178-.044-.244.078-.265-.03-.454-.068-.305.05-.267c.006-.96.024-1.51.053-1.65 0-.3-.002-.53-.012-.692l.03-.84-.036-.333.017-.24-.047-.183c.04-.258.062-.457.07-.596l-.048-.154c.04-.56.053-.89.04-.99.057-1.12.127-1.956.205-2.512l-.03-.453.12-.834-.07-.727c.02-.28.056-.498.107-.655l.098-.114.28-.1c.182-.047.375-.064.573-.05l1.05.044.503.095.5.184.122-.02c.265-.063.608-.09 1.027-.08.52-.003.863-.01 1.023-.017l.298.05.307-.07.358.026.443.12 1.144-.01.247-.102.288.17.174.074c.302.003.744-.006 1.327-.026z"/></g></svg>