<?xml version="1.0" encoding="UTF-8" standalone="no"?>
<svg width="24px" height="18px" viewBox="0 0 24 18" version="1.1" xmlns="http://www.w3.org/2000/svg" xmlns:xlink="http://www.w3.org/1999/xlink">
    <!-- Generator: Sketch 3.8.2 (29753) - http://www.bohemiancoding.com/sketch -->
    <title>vlag</title>
    <desc>Created with Sketch.</desc>
    <defs>
        <rect id="path-1" x="0" y="0" width="24" height="18" rx="2"></rect>
        <path d="M20.106383,10.0531915 L40.212766,10.0531915 L40.212766,20.106383 L20.106383,10.0531915 Z M20.106383,10.0531915 L20.106383,20.106383 L0,20.106383 L20.106383,10.0531915 Z M20.106383,10.0531915 L0,10.0531915 L0,0 L20.106383,10.0531915 Z M20.106383,10.0531915 L20.106383,0 L40.212766,0 L20.106383,10.0531915 Z" id="path-3"></path>
    </defs>
    <g id="Nav" stroke="none" stroke-width="1" fill="none" fill-rule="evenodd">
        <g id="navbar---new" transform="translate(-30.000000, -558.000000)">
            <g id="vlag" transform="translate(30.000000, 558.000000)">
                <mask id="mask-2" fill="white">
                    <use xlink:href="#path-1"></use>
                </mask>
                <use id="Mask" fill="#D8D8D8" xlink:href="#path-1"></use>
                <g id="Flag_of_the_United_Kingdom" mask="url(#mask-2)">
                    <g transform="translate(-8.106383, -1.148936)" id="Group">
                        <g>
                            <polygon id="Shape" fill="#00247D" points="0 0 0 20.106383 40.212766 20.106383 40.212766 0"></polygon>
                            <path d="M0,0 L40.212766,20.106383 M40.212766,0 L0,20.106383" id="Shape" stroke="#FFFFFF" stroke-width="4.03199988" fill="#000000"></path>
                            <g id="Clipped">
                                <mask id="mask-4" fill="white">
                                    <use xlink:href="#path-3"></use>
                                </mask>
                                <g id="Shape"></g>
                                <path d="M0,0 L40.212766,20.106383 M40.212766,0 L0,20.106383" id="Shape" stroke="#CF142B" stroke-width="2.68799992" fill="#000000" mask="url(#mask-4)"></path>
                            </g>
                            <path d="M20.106383,0 L20.106383,20.106383 M0,10.0531915 L40.212766,10.0531915" id="Shape" stroke="#FFFFFF" stroke-width="6.7199998" fill="#000000"></path>
                            <path d="M20.106383,0 L20.106383,20.106383 M0,10.0531915 L40.212766,10.0531915" id="Shape" stroke="#CF142B" stroke-width="4.03199988" fill="#000000"></path>
                        </g>
                    </g>
                </g>
            </g>
        </g>
    </g>
</svg>