<svg xmlns="http://www.w3.org/2000/svg" width="101" height="147" viewBox="0 0 101 147">
    <g fill="none" fill-rule="evenodd">
        <g fill="#231F20">
            <path d="M34.37 91.366l.197.157-.032.593-.132.39-.13.217-.21.143-.367.15-.55.325-.347.177-.17.176-.164.189-.465.404-.53.515-.387.313-.36.338-.662.38-.458.241-.623.593-.445.26-.328.365-.314.562-.276.24-.287.235-.8.777-.333.182-.256.266-.315.386-.262.26-.563.306-.177.176-.354.516-.53.521-.229.079-.255-.033-.263.072-.19.508-.537.684-.327.366-.243.28-.307.222-.61.607-.59.807-.274.587-.072.286.026.484.196.331.046.3-.006.53-.099.252-.15.197-.433.267-.458.587-.243.456-.196.326-.124.398-.15.196-.316.208-.11.411.006.351-.079.268-.242.287-.137.385-.073.45.04.488.104.555-.059.612.164 1.056.124.228.269.261.065.28.066.28.688 1.05.328.549.333.358.531.345.268.255.348.346.858.54.314.209.577.124.688.358.229.294.255.09.544.15.687.02.36.157.177.17.119.234.32 1.428-.04.313-.051.293.046.293.36 1.037.36.685.609.958.334.366.23.293.432.436.314.385.492.554.157.19.399.299.282.241.543.326.243.281.197.326.327.195.458.242.36.333.564.313.321.201.38.143.733.483.184.163 1.16.593.706.34.525.168 1.219.522.523.176 1.002.398.649.221.51.358.8.255.465.066.072.188-.348.555-.347.346-.314.56-.183.34-.223.645-.353.69-.046.307.046.49.039.285-.138.738-.177.345.02.26.183.692.236.456-.013.222-.092.267-.006.313.137.22.38.321.288.235.21.313.32.547.198.15.36.164.354.344.353.17.544.156.308.04.386.13.859.196.444.077.525-.004.268.083.236.125.386-.021.27-.084 1.204-.013.426-.072.491.19.492-.105 1.381-.007.544.15.681.013.61-.091.89.027.649-.059.288-.04.445.085.315-.04.295-.05.609.09.517-.013.616-.085h1.218l.74-.137.335-.195.222-.294.23-.123.49-.033.295.059.452.246.623.08.452.248.281.066.602-.092.434.103.28.08.321-.02.38-.04h.387l.302.06.49.031.283.046.451-.085.328.026.452.072 1.913-.013.616-.085.693.02.38.143.498.007.446-.079.681-.019.288-.065.275.051.256.105.3-.012.545-.15.451-.092.328.026.289.072.306-.032 1.03-.372.406-.118.197-.149.269-.255.477-.222.674-.196.197-.15.243-.448.124-.23.281-.246.315-.556.19-.684.4-1.16.13-.75-.065-.287-.105-.248v-.306l.072-.292-.013-.328-.216-.652-.262-.436-.032-.313-.014-.34-.504-.533-.196-.156-.105-.248-.295-.764.006-.273 1.382-.554.302-.04 1.028-.364.884-.516.577-.123.484-.21.439-.26 1.33-.594.59-.28.379-.313.687-.364 1.704-1.082.374-.15.523-.522.276-.424.399-.293.478-.222.118-.229.451-.938.073-.45.295-.404.21-.658.039-.665.23-.985.032-.664.079-.607.123-.228.198-.163.431-.092.708-.156.465-.234.596-.1.354-.175 1.12-.625.818-.398.4-.3.327-.195.708-.685.296-.228.261-.431.393-.483.394-.306.648-1.264.112-.41.05-.471.204-.495.007-1.192-.08-.443v-.522l-.083-.268-.158-.36-.204-.84-.268-.606-.274-.77-.196-.325-.112-.41.006-.314.04-.267.006-.378.007-.313-.165-.541-.117-.228-.007-.346-.17-.346-.288-.41-.387-.828-.23-.47-.575-.815-.368-.677-.628-.77-.25-.267-.28-.424-.132-.391-.32-.548-.453-.586-.353-.522-.701-.698-.446-.77-.262-.26-.426-.274-.445-.599-.13-.208-.275-.248-.158-.196-.308-.215-.387-.49-.517-.527-.183-.333-.301-.228-.21-.137-.243-.28-.334-.19-.609-.612-.145-.195-.693-.529-.387-.49-.7-.514-.132-.227v-.281"/>
            <path d="M90.875 86.753l.086-.09-.06.003.087-.284.362-.684.49-.9.105-.247.046-.47.098-.255.34-.71.316-.724.104-.418.23-.815.031-.488.034-.489.23-.638.15-.38.032-.313-.092-.611.119-.575.223-.827.065-.587-.059-.443v-.346l-.164-.371.04-.274.118-.405.025-.502.073-.45-.02-.854-.223-.658.06-.397.091-.274-.014-.32-.077-.45v-.69l-.086-.444-.046-.476-.32-1.943-.125-.391-.347-.697-.033-.313V65.2l-.17-.528-.086-.607-.15-.378-.294-.398-.08-.274-.046-.3-.19-.332-.09-.423-.126-.405-.072-.274-.32-.371-.498-.894-.353-.697-.1-.423-.15-.196-.262-.268-.184-.339-.209-.306-.183-.339-.367-.509-.196-.325-1.042-1.044-.478-.743-.19-.333-.302-.221-.308-.391-.537-.333-.15-.195-.138-.216-.629-.417-.483-.215-.152-.195-.23-.463-.438-.437-1.028-.717-.656-.215-.177-.176-.234-.457-.341-.358-.067-.274.144-.56.145-.21.27-.254.463-1.447.224-.47.242-.28.47-1.102.165-.527.229-.47.256-.789.013-1.03.32-.378.15-.372.349-1.043.197-.502.091-.424.189-.515.098-.424-.032-.41.078-.45.106-.554.419-.971.13-.906.053-.47.072-.633.459-1.453.033-.483-.158-.541.158-.508.013-1.2.15-.541.014-1.904.084-.443-.007-1.206-.085-.443-.032-.49-.058-.462.012-.515.072-.437-.078-.443-.047-.476-.13-.568-.033-.489-.216-.482-.17-.698-.047-.645-.209-.658-.099-.437-.261-.6-.027-.665-.45-1.115-.394-.658-.131-.737-.19-.332-.164-.88-.117-.228-.427-.45-.288-.411-.328-1.057-.23-.469-.183-.17-.373-.15-.183-.162-.616-.952-.262-.261-.385-.313-.277-.254-.425-.085-.655-.391-.838-.208-.505-.196-.681-.007-.269.046-.694-.15-.346.006-.256.105-.636.404-.322.209-.45.064-.296.06-.76.463-.17.175-.242.457-.262.26-.472.222-.492.379-.38.143-.261.26-.228.3-.158.19-.197.502-.241.28-.4.124-.197.15-.459.58-.34.358-.943 1.5-.19.502-.104.417-.44.437-.157.359-.544 1.375-.17.177-.177.521-.184.339-.326.887-.244.456-.051.3-.033.489-.282.932-.334.71-.156.894-.132.384-.132.744-.203.664-.124.574-.046.47-.124.58-.04.652-.222.828-.06.456-.188.678-.073.626-.04.32.099.606-.059.293-.177.346-.066.632-.051.47-.046.469-.118.41.019.294.104.71-.104.757v.273l.066.476-.105.77-.15.548-.034.658-.078.45.013.515.092.45-.027.326-.046.267.073.443-.027.509-.078.45.105.606-.046.489.112.815-.139.202-.779.02-.275-.033-.557.15-.393-.098-.164-.19-.184-.358.204-.586.027-.496-.02-.854-.073-.45.013-.515.08-.443-.053-.3-.086-.248.268-.717.054-.469-.105-.424-.164-.535.02-.502.066-.286-.034-.3-.118-.894.072-.45-.038-.489-.151-.899-.085-.607.025-.9-.071-.442-.118-.405v-.528l-.08-.267-.096-.255.032-.299.058-.3-.031-.313-.217-.658-.111-.763.032-.737-.19-.677-.014-.673-.17-.534-.15-.887-.105-.247-.026-.665-.196-.679-.105-.24-.085-.614-.44-1.297-.065-.456-.183-.515-.098-.593-.42-.809-.052-.294-.026-.312-.131-.228-.223-.294-.197-.502-.065-.28-.243-.456-.32-.9-.315-.378-.262-.437-.117-.574-.341-.534-.138-.209-.294-.228-.177-.346-.092-.43-.216-.483-.623-.945-.602-.613-.34-.886-.184-.163-.314-.208-.27-.255-.294-.228-.137-.209-.275-.248-.334-.535-.19-.155-.616-.261-.452-.248-.504-.365-.269-.085-.511-.013-.21-.13-.32-.202-.473-.235-.307-.026-.484.163-.852.02-.701.169-.576.293-.55.144-.426.28-.492.372-.432.273-.268.248-.295.404-.596.45-.754.991-.655.913-.36.691-.51.873-.583 1.33-.262.437-.197.502-.124.58-.014.333-.104.241-.217.3-.34.874-.053.475-.209.483-.111.594-.014.332-.307.743-.06.626-.051.47-.067.456-.537 2.08.086.593-.007.521-.092.26-.059.398.066.47-.013.522-.138.554.243.756-.013 1.043.065.594-.098.69.111.548.183.691.04.482.104.378-.052.437.02.854.19 1.024.216.49.092.423.02.495.163.71.151.894.157.366.183.338.046.646.223.658.007.3-.06.28.06.268.425 1.493.184.515.118.58.281.41.138.73.032.32.131.222.177.17.105.247.013.509.433 1.127.196.848.577 1.343.163.358.053.404-.236.43-.616.431-.668.372-.412.287-.315.208-.622.6-.551.326-.222.124-1.041 1.05-.112.234-.183.163-.459.241-.432.261-.197.333-.13.215-.407.293-.229.118-.256.443-.3.567-.315.384-.453.418-.123.221-.125.575-.34.534-.184.332-.32.379-.29.41-.255.267-.406.985-.216.476-.262.267-.242.45-.223.652-.34.528-.152.365-.137.392-.269.606-.275.939-.078.267-.42.632-.222.99-.066.633-.281.932-.105.594-.02.502-.327 1.415-.007.332.164.547-.013.3-.288.757-.086.43.06.587-.027.326-.072.287.02.32.079.45.006 1.029.157.547v.333l-.124.542.084.365.257.97.202 1.363.197.855.013.325.42 1.324.3.926.38 1.003.309.568.3.913.08.274.353.514.183.339.223.3.124.398.053.293.262.43.34.366.038.061-.086.003.19.17.186.307.367.333.262.43.263.267.127.284.286.274.104.066.104.145.19.34.433.215.04.044.252.495.175.204.46.28.844.658.447.493.335.41.76.549.474.268.175.198.265.12.418.132.468.276.649.472.412.339.272.097.453.114.865.444.719.578.53.226.446.295 1.04.269.412.148.404.338.712.225.606.135.538.21.886.235.404.161.517.035 1.443.24.273.098.363.191.244.134.217.155.46.112.348-.027.3-.063.747.168.481.24.251-.049.573-.177.927-.007.775.155.377.184.649.091.341.05.83-.114.524.044.446.126.3-.007h.259l.71.035.502.05 1.083.225.732.007.412-.147.279-.106h.299l.907.409.328.034.44-.133.78-.149.65.099.663-.09 1.388-.29.948.169.294-.036 1.103-.401.69-.05 1.52-.345.538-.02.613-.135.677-.254.629-.112.71-.226.462-.282.753-.374 1.18-.31.424-.127.454-.303.572-.176.802-.5 1.012-.48.496-.247.278-.282.257-.12.266-.106.552-.38.412-.529.738-.571.398-.162.188-.184.308-.444.656-.655.32-.424.593-.528.398-.543.454-.289.152-.225.21-.537.09-.124.132-.12.079-.166.173-.237.314-.248.236-.468.148-.192.215-.313.281-.637.062-.067.216-.17.077-.106.096-.357.1-.09.445-.776.09-.294z"/>
        </g>
        <path fill="#FEFEFE" d="M36.026 139.597v.23h-.695l.082-.014-.387.144-.057.014-.308.032-.093-.01-.64-.2-.3-.054.05.004-.678.026-.38-.02.053-.003-.492.082-.517-.013-.088-.02-.458-.202.094-.211.015.23-.117.008-1.172.05.062-.011-.262.086-.053.011-.23.019-.054.004-.05-.02-.498-.195.076.016-.47-.022-.432.06h-.065l-.583-.085-.052-.014-.473-.187-.416-.112-.275-.079-.075-.037-.7-.52-.06-.066-.328-.534-.022-.05-.17-.528.037.071-.235-.299-.043-.088-.033-.137-.003-.091.098-.601v.076l-.081-.487-.02-.313.007-.073.183-.697.029-.065.193-.302.177-.345-.026.11-.006-.259v-.33l.031-.053.085-.139.235-.294.078-.063.354-.176.103.207-.192-.129.065-.096.192.128-.23.015-.027-.391-.005-.072.038-.062.06-.098.035-.058.061-.03.507-.243.769-.227.471-.234.049-.018.242-.058.092-.004.623.104 1.094.313-.085-.008.446-.04.09.01.44.143.651.09 1.057.286.335.034 1.022.167.845.02.072.013.643.227-.11-.01.419-.059.074.002.836.16 1.268.003.406.081.377.01.445.078-.062-.002.275-.026.087.008.34.098-.051-.008.365.021.451.072h-.064l.281-.035.491-.045.065.003.44.084h-.092l.314-.062.731-.025.314.039.084.01.058.062.079.084.057.062.005.083.006.112-.015.093-.097.26.012-.049-.04.281-.018-.127.112.247.017.058.045.274.012.072-.032.066-.162.323-.08.268.007-.102.146.918.032.3-.004.076-.229.997.006-.068.02.29-.014.26-.004.066-.038.054-.357.512-.354.522-.065.063-.21.137-.084.034-.74.137.086-.035-.315.21-.054.035-.065.003-.328.013-.06-.006-.29-.066.047.006-.498-.013.056-.005-.752.162-.564.01-.575-.088h-1.748v-.23zM56.338 139.39l.059.222-1.101.287-.055.007-.878.013-.05-.005-.287-.058-.085-.036-.21-.144.072.033-.274-.071.102.003-.879.17h-.082l-.398-.068-1.042.006.06-.008-.543.15-.049.008-.327.02-.048-.002-.614-.092-.438-.063-.504-.026.048-.002-.482.073-.722.02-.432-.053.066-.002-.312.05-.326-.007-.06-.01-1.081-.312-.065-.03-.525-.352-.058-.04-.027-.065-.04-.098-.023-.056.008-.06.034-.255.012.108-.138-.377-.014-.07-.01-.307-.092-.606-.002-.048.02-.333.007-.049.19-.67-.008.074-.04-.737.003-.052.077-.428.026-.327.006.071-.142-.606-.033-.28-.007-.058.021-.054.099-.247.057-.084.183-.17.047-.043.062-.014.145-.031.05-.006 1.54.009 1.096-.145.484-.032.503-.047.386.026-.064.004.607-.127.458-.036.879-.17.046-.004.662.01.47-.074.648-.052-.055.011.825-.27.445-.055 1.026-.248.669-.032-.05.008 1.52-.404.054-.008.478-.01.459-.066.054-.002.276.026.047.01.668.209.054.025.322.203.067.064.262.384.43.47.23.295.032.057.554 1.408.132.574.005.065-.02.327-.017.074-.095.222-.097.385.006-.072.026.398-.012.092-.328.924-.29.635-.145.21-.05.071-.084.021-.42.104.065-.027-.19.113-.485.392-.044.028-.347.17-.08.022-.297.028-.295.06.07-.027-.438.254-.079.029-.746.123-.081-.001-.139-.027-.05-.015-.372-.163.093-.21-.02.229-.228-.019.02-.23z"/>
        <path fill="#F26522" d="M45.38 131.337l-.793.09-.446.08-1.559.006-.53-.176h-.695l-.713.157-.269-.04-.387-.143-.294-.058-.465-.053-.491-.039-.479.059-.249-.007-.412.04-.301-.046-.518-.183-.753-.117-2.273.007-.314-.04-.348-.169-.432-.098-.472-.052-.445-.079-.851-.02-.905-.318-1.002-.222-.347-.169-.288-.066-.61-.085-.85-.201-.872-.346-.766-.287-.825-.215-.466-.228-.904-.151-.681-.364-1.094-.476-.596-.28-.498-.197-.988-.404-.308-.214-.223-.124-.682-.19-.438-.26-.537-.509-.505-.196-.53-.338-.544-.509-.616-.255-.216-.135-.301-.393-.295-.228-1.231-1.212-.433-.26-.261-.262-.257-.62-.13-.208-.406-.293-.138-.215-.065-.28-.105-.248-.242-.28-.033-.137.052-.294.02-.293-.203-.848v-.247l.197-.502-.007-.13-.269-.777.02-.221.196-.51.072-.26-.085-.436-.137-.378v-.111l.17-.353.229-.815.013-.52-.065-.47-.006-.274.19-.521.032-.274-.065-.287.006-1.2.164-.358.085-.267-.007-.522.092-.606-.007-1.044.027-.325.118-.235.046-.3.17-.528-.124-.574-.171-.182-.556-.32-.36-.098-.538.13-.249.099-.15.202-.152.548-.229.809-.163.194-.21.11-.105-.019-.445-.422-.13-.217-.27-.254-.118-.228-.085-.09-.458-.072-.092-.08-.06-.11-.156-.541-.13-.215-.204-.32-.15-.195-.23-.123-.196-.15-.236-.451v-.222l-.04-.26-.327-.744-.02-.26.052-.117.341-.372.564-.821.504-.372.655-.568.288-.403.426-.444.445-.254.682-.71.438-.261.19-.164.25-.443.15-.196.733-.489.217-.305.439-.437.661-.562.223-.124.301-.22.295-.399.301-.228.616-.6.393-.306.563-.307.36-.338.23-.294.347-.345.262-.26.465-.236.439-.254.34-.365.177-.162.714-.17.105-.066.15-.371.086-.085.124-.052.302-.046.471-.235.262-.071.289.052.248.097.583.464.937.631.563.314.38.313.347.176.878.521.413.11.268.08.197.15.386.137.433.266.799.425.562.137.21.136.806.411.727.143.465.242.282.059 1.068.332.353.17.25.104.746.116.242.105.321.04.295.052.334.195.157.019.315-.046.288-.045.583.117.353.17.57.124.512.02.445.078 1.041.006.485.033.511.195.57.125 1.73.012.398.124.486.039.713.17.328-.013.556-.15h.315l.55.163.288-.045.491-.046.61.091.7-.007.453.072.68.026.767-.11.669-.216h.274l.244.111.607.084.4-.05.897-.151.682-.026 1.08-.307.322-.032.452-.073.839-.032.543-.15.693-.013.82-.222 1.113-.456.833-.045.516-.183.53-.338.388-.15.485-.027.36-.17.649-.215.983-.417.294-.228.308-.215 1.14-.43.307-.216.367-.325.464-.235.486-.385.406-.117.23-.117.392-.307.294-.235.236-.045.42.071.452.248.26.436.27.262.95.606.242.286.412.288.44.43.328.196.288.234.354.516.51.358.25.28.202.151.197.142.202.32.177.17.281.24.296.582.092.085.366.156.36.508.669.724.295.58.242.28.308.384.38.49.137.39.453.764.19.156.28.247.335.535.157.365.564 1.005.347.52.21.145.157.189.385 1.003.046.3-.163.535-.085.26-.197.158-.21.306-.59.463-.47.222-.36.338-.57.294-.184.17-.263.435-.098.072-.136.046-.341.007-.315.032-.104.072-.131.214-.1.087-.137.038h-.163l-.275-.091-.086-.092-.104-.24-.099-.594-.196-.325-.164-.366-.236-.28-.315-.215-.287-.066-.308.026-.386.144-.204.156-.045.124v.137l.118.424.032.273-.124.236-.04.143v.156l.157.717.027.51-.098.605.268 1.825v1.91l-.085.444v1.388l-.098.783.078.606-.051.275-.034 1.355-.15.385-.006.678-.092.606.005.528-.04.314-.215.48.039.276.02.299-.144.554-.243.456-.051.288-.072.104-.21.143-.753.815-.452.248-.223.3-.806.588-.642.226-.61.261-.405.293-.439.261-.662.21-.353.17-.59.455-.347.175-.307.04-.57.132-.74.312-.308.209-.329.202-.963.247-.91.313-.615.26-.833.217-.667.025-1.062.339-.418.104-.629.242-.557.143-.485.04-1.126.273-.596.097-.237.111-.248.105-.327.013-.29-.065-.327-.027-1.677.425-.51.012-.438-.078-.44.072h-.694l-1.664.261h-.694l-.452.077-.327.027-.308-.066z"/>
        <path fill="#FEFEFE" d="M76.533 116.016l.028.23.268-.034h-.058l.263.033.103-.01.249-.084.714-.396.647-.419.32-.165.523-.408.51-.341.065-.065.137-.21.223-.534-.055.08.538-.508.037-.045.334-.535.024-.052.17-.528.218-.438.022-.076.084-.742-.052-.659-.012-.67-.019-.086-.104-.241-.027-.047-.152-.202-.185.139.213-.09-.052-.124-.213.09.23.022.026-.26.024-.127-.001-.087-.027-.13-.01-.054-.035-.043-.157-.196-.16-.192.043.08-.124-.405-.016-.05-.036-.04-.085-.09-.06-.064-.086-.01-.125-.012-.074-.008-.065.037-.333.189-.503.43-.592.425.06-.031-.649.221-.07.038-.195.156-.038.039-.23.294-.248.217.055-.037-.59.282-.474.22-.855.594.058-.03-.78.268-.152.083-.054.032-.031.055-.066.118-.027.048-.003.055-.013.332.005.053.085.437-.001-.081-.073.43.002.082.085.436-.011 2.382-.081.406-.03.594-.004.084.051.067.145.188.038.05.057.023.235.098.068.028.072-.016.556-.123.566-.147zM7.277 114.23l-.1.208-.354-.17-.08-.064-.152-.189.181-.143-.13.19-.105-.071.131-.19-.024.23-.68-.076-.4-.124-.068-.034-.827-.605-.346-.326-.807-.646-.413-.456-.042-.066-.203-.49.024.045-.297-.425-.262-.436-.03-.078-.097-.558-.085-.267-.01-.055-.027-.448-.072-.286-.006-.065.013-.32.015-.075.151-.384-.015.098-.02-.315v-.297l.031-.054.315-.537.478-.92.044-.059.372-.36.364-.287.381-.386.104-.073.082-.035.144-.033.082-.004.144.02.096.035.112.072.053.049.294.368.283.27.623.778-.034-.035.478.391.055.066.314.561-.039-.051.263.26-.041-.032.537.333.047.03.03.047.195.326-.096-.088.228.113.236.105.049.029.49.384.06.069.124.222.028.084.041.349-.013 1.565-.006.05-.164.698.006-.048-.015.712-.083.582-.007 1.038-.016.083-.098.247-.023.058-.049.038-.098.077-.05.04-.065.008-.308.04h-.051l-.812-.077.022-.23z"/>
        <path fill="#231F20" d="M17.37 86.366l.12.058.077.1.04.136-.072.456-.132.39-.13.217-.21.143-.367.15-.55.325-.347.177-.17.176-.164.189-.465.404-.53.515-.387.313-.36.338-.662.38-.458.241-.623.593-.445.26-.328.365-.314.562-.276.24-.287.235-.8.777-.333.182-.256.266-.315.386-.262.26-.563.306-.177.176-.354.516-.53.521-.229.079-.255-.033-.263.072-.078.098-.112.41-.537.684-.327.366-.243.28-.307.222-.61.607-.59.807-.274.587-.072.286.026.484.196.331.046.3-.006.53-.099.252-.15.197-.433.267-.458.587-.243.456-.196.326-.124.398-.15.196-.316.208-.071.098-.04.313.007.351-.079.268-.242.287-.137.385-.073.45.04.488.104.555-.059.612.164 1.056.124.228.269.261.065.28.066.28.688 1.05.328.549.333.358.531.345.268.255.348.346.858.54.314.209.577.124.688.358.229.294.255.09.544.15.687.02.36.157.177.17.119.234.32 1.428-.04.313-.051.293.046.293.36 1.037.36.685.609.958.334.366.23.293.432.436.314.385.492.554.157.19.399.299.282.241.543.326.243.281.197.326.327.195.458.242.36.333.564.313.321.201.38.143.733.483.184.163 1.16.593.706.34.525.168 1.219.522.523.176 1.002.398.649.221.51.358.8.255.465.066.085.078-.013.11-.348.555-.347.346-.314.56-.183.34-.223.645-.353.69-.046.307.046.49.039.285-.138.738-.177.345.02.26.183.692.236.456-.013.222-.092.267-.006.313.137.22.38.321.288.235.21.313.32.547.198.15.36.164.354.344.353.17.544.156.308.04.386.13.859.196.444.077.525-.004.268.083.236.125.124.032.262-.053.27-.084 1.204-.013.426-.072.491.19.23-.021.262-.084 1.381-.007.544.15.681.013.61-.091.89.027.649-.059.288-.04.445.085.315-.04.295-.05.609.09.517-.013.616-.085h1.218l.74-.137.335-.195.222-.294.23-.123.49-.033.295.059.452.246.623.08.452.248.281.066.602-.092.434.103.28.08.321-.02.38-.04h.387l.302.06.49.031.283.046.451-.085.328.026.452.072 1.913-.013.616-.085.693.02.38.143.498.007.446-.079.681-.019.288-.065.275.051.256.105.3-.012.545-.15.451-.092.328.026.289.072.306-.032 1.03-.372.406-.118.197-.149.269-.255.477-.222.674-.196.197-.15.243-.448.124-.23.281-.246.315-.556.19-.684.4-1.16.13-.75-.065-.287-.105-.248v-.306l.072-.292-.013-.328-.216-.651-.262-.437-.032-.313-.014-.34-.059-.116-.445-.417-.196-.156-.105-.248-.295-.764-.019-.143.025-.13.086-.098 1.296-.456.302-.04 1.028-.364.884-.516.577-.123.484-.21.439-.26 1.33-.594.59-.28.379-.313.687-.364 1.704-1.082.374-.15.523-.522.276-.424.399-.293.478-.222.118-.229.451-.938.073-.45.052-.124.243-.28.21-.658.039-.665.23-.985.032-.664.079-.607.123-.228.198-.163.431-.092.708-.156.465-.234.596-.1.354-.175 1.12-.625.818-.398.4-.3.327-.195.708-.685.296-.228.261-.431.393-.483.394-.306.648-1.264.112-.41.05-.471.204-.495.007-1.192-.08-.443v-.522l-.083-.268-.158-.36-.204-.84-.268-.606-.274-.77-.196-.325-.112-.41.006-.314.04-.267.006-.378.007-.313-.165-.541-.117-.228-.007-.346-.17-.346-.288-.41-.387-.828-.23-.47-.575-.815-.368-.677-.628-.77-.25-.267-.28-.424-.132-.391-.32-.548-.453-.586-.353-.522-.701-.698-.446-.77-.262-.26-.426-.274-.445-.599-.13-.208-.275-.248-.158-.196-.308-.215-.387-.49-.517-.527-.183-.333-.301-.228-.21-.137-.243-.28-.334-.19-.609-.612-.145-.195-.693-.529-.387-.49-.7-.514-.132-.227v-.281M8.744 106.074l-.445-.423-.13-.216-.27-.254-.117-.228-.086-.091-.458-.071-.092-.08-.06-.11-.156-.54-.13-.216-.204-.32-.15-.195-.23-.123-.197-.15-.235-.451v-.222l-.04-.26-.327-.744-.02-.26.052-.117.34-.372.565-.82.504-.373.655-.568.288-.403.426-.444.445-.254.682-.71.438-.261.19-.164.249-.443.15-.195.734-.49.216-.305.44-.437.66-.562.224-.124.301-.22.295-.398.302-.229.615-.6.393-.306.564-.307.36-.338.228-.294.348-.345.262-.26.465-.237.439-.253.34-.365.177-.162.714-.17.105-.066.15-.371.085-.085.125-.052.302-.046.471-.235.262-.071.289.051.249.098.582.464.937.631.563.314.38.313.348.176.877.522.413.11.268.078.197.151.386.137.433.266.799.425.562.137.21.137.806.41.727.143.465.242.282.059 1.067.332.354.17.25.104.746.116.243.105.32.04.295.051.334.195.157.02.315-.046.288-.045.583.117.353.17.57.124.512.02.445.078 1.041.006.485.033.51.195.571.124 1.73.013.398.124.486.039.713.17.327-.014.557-.15h.315l.55.165.288-.046.49-.046.61.092.701-.008.453.072.68.026.767-.11.669-.216h.274l.243.112.608.083.4-.05.897-.151.682-.026 1.08-.307.322-.033.452-.072.839-.032.543-.15.693-.013.82-.222 1.113-.456.833-.046.516-.182.531-.339.387-.149.485-.027.36-.17.648-.215.984-.417.293-.228.309-.216 1.14-.43.306-.215.368-.325.464-.235.486-.385.405-.117.23-.118.393-.306.294-.235.236-.045.42.07.452.25.26.435.27.262.95.606.242.287.412.287.44.43.328.196.288.234.354.515.51.36.25.28.202.15.197.142.202.32.177.17.281.24.296.582.091.085.367.155.36.509.669.723.296.58.241.28.308.385.38.49.137.39.453.764.189.156.282.247.334.535.157.365.564 1.005.347.52.21.145.156.189.386 1.003.046.3-.163.534-.086.261-.196.158-.21.305-.59.464-.47.222-.36.338-.571.294-.183.169-.263.436-.097.072-.137.046-.341.007-.315.032-.104.072-.131.215-.1.085-.137.039h-.163l-.275-.092-.085-.09-.105-.242-.1-.593-.195-.326-.164-.366-.236-.279-.314-.215-.288-.066-.309.025-.385.145-.204.156-.045.124v.137l.117.424.033.273-.124.235-.04.144v.156l.157.717.026.51-.097.606.268 1.825v1.91l-.085.443v1.388l-.098.783.078.606-.051.275-.034 1.355-.15.385-.007.678-.091.606.005.528-.039.313-.216.482.039.275.02.299-.143.554-.244.456-.051.288-.072.104-.21.143-.753.815-.452.248-.223.3-.806.587-.642.228-.61.26-.405.294-.439.26-.662.21-.353.17-.59.456-.347.175-.307.039-.57.131-.74.313-.309.208-.328.203-.962.247-.911.313-.615.26-.833.217-.667.025-1.062.34-.417.103-.63.241-.557.144-.485.039-1.126.274-.596.098-.237.11-.248.105-.328.013-.288-.065-.328-.026-1.677.424-.51.012-.438-.078-.44.072h-.694l-1.664.261h-.694l-.452.077-.327.027-.308-.065-.301-.033-.793.091-.446.08-1.559.004-.53-.175h-.695l-.713.157-.269-.04-.387-.143-.294-.058-.465-.053-.491-.038-.479.058-.248-.007-.413.04-.301-.046-.518-.182-.753-.118-2.273.007-.315-.04-.347-.169-.432-.098-.472-.053-.445-.078-.852-.019-.904-.32-1.002-.221-.347-.169-.288-.066-.61-.085-.851-.201-.871-.346-.766-.287-.825-.215-.466-.228-.904-.15-.68-.365-1.095-.476-.596-.28-.498-.197-.988-.404-.309-.214-.222-.124-.682-.19-.438-.26-.537-.509-.505-.196-.53-.339-.544-.508-.615-.255-.217-.135-.3-.393-.296-.228-1.231-1.212-.433-.261-.261-.261-.256-.62-.13-.207-.408-.294-.137-.215-.065-.28-.105-.248-.242-.28-.033-.137.052-.294.02-.293-.203-.848v-.247l.196-.502-.006-.13-.27-.777.021-.22.196-.51.072-.26-.085-.437-.137-.378v-.111l.17-.352.229-.816.013-.52-.065-.47-.006-.274.19-.522.032-.273-.065-.287.006-1.2.164-.357.085-.268-.006-.522.092-.606-.008-1.044.027-.325.118-.235.046-.3.17-.528-.125-.574-.17-.183-.556-.32-.361-.096-.537.13-.249.098-.15.202-.152.548-.229.808-.163.194-.21.112-.105-.02zm-1.467 8.157l-.354-.17-.15-.19-.105-.07-.636-.066-.4-.124-.805-.587-.36-.339-.78-.62-.412-.456-.203-.489-.288-.41-.263-.437-.104-.587-.086-.268-.032-.488-.072-.286.013-.321.15-.384-.019-.3v-.235l.32-.547.48-.92.353-.345.386-.307.348-.357.104-.072.144-.033.145.019.11.072.316.39.261.249.623.777.478.39.314.561.262.26.537.333.197.326.236.117.235.105.492.384.124.222.04.32-.014 1.565-.163.696-.013.685-.086.612-.007 1.038-.097.247-.099.078-.308.039-.812-.077zm67.906 1.956l-.145-.19.027-.561.085-.449.006-2.426-.085-.436.073-.43-.086-.438.013-.332.066-.118.11-.065.78-.267.819-.574.478-.22.59-.282.275-.247.23-.294.195-.156.65-.222.609-.437.464-.404.334-.189.125.013.085.091.125.405.156.188.157.196.027.13-.027.144-.025.262.052.124.151.201.105.24.013.686.052.612-.084.743-.23.47-.17.528-.335.534-.538.509-.202.495-.137.21-.525.352-.485.384-.34.176-.635.41-.674.38-.25.083-.262-.033-.267.033-.558.145-.556.123-.236-.097zm-22.808 16.65l.648-.052.78-.26.471-.06.982-.241.669-.032 1.519-.405.505-.012.459-.066.275.025.667.21.322.203.281.409.42.456.229.294.543 1.375.132.574-.02.327-.106.254-.097.385.027.398-.321.906-.27.598-.144.21-.42.103-.214.13-.486.392-.347.17-.32.032-.296.06-.439.254-.746.123-.138-.026-.374-.163-.227-.019-1.102.287-.878.013-.287-.059-.21-.144-.275-.071-.879.17-.438-.072-1.042.006-.543.15-.328.02-.614-.092-.46-.066-.505-.025-.452.071-.687.02-.433-.052-.268.046-.327-.007-1.081-.312-.524-.352-.04-.099.033-.254-.138-.378-.012-.333-.092-.606.02-.332.19-.671-.04-.737.079-.45.026-.327-.137-.58-.034-.28.099-.248.183-.17.145-.031 1.572.006 1.08-.143.492-.033.465-.046.386.026.577-.123.484-.04.878-.17.7.007.453-.071zm-24.963 6.468l-.498-.196-.412-.111-.275-.078-.701-.522-.328-.534-.17-.53-.235-.298-.034-.137.099-.6-.08-.463-.019-.313.184-.698.203-.32.177-.345-.007-.253v-.268l.066-.111.236-.294.353-.176.065-.097-.025-.391.059-.098.471-.23.806-.24.471-.235.243-.058.596.098 1.094.313.445-.04.478.15.623.085 1.094.294.32.032 1.055.17.845.018.642.229.419-.059.878.164h1.224l.446.085.34.006.446.078.275-.026.34.098.341.02.453.072.275-.033.49-.046.44.084.275-.058.694-.026.314.039.079.085.006.111-.098.26-.04.28.113.248.045.274-.176.359-.08.267.145.907.032.3-.228.997.019.261-.014.26-.36.515-.353.522-.21.137-.74.137-.314.208-.328.013-.288-.066-.498-.012-.707.157-.524.013-.61-.092h-2.443l-.386.144-.307.033-.67-.208-.3-.053-.656.026-.38-.02-.445.078-.518-.013-.458-.202-.111.007-1.173.051-.262.086-.229.02-.498-.197-.51-.02-.433.06-.583-.084z"/>
        <path fill="#231F20" d="M73.875 81.753l.086-.09-.06.003.087-.284.362-.684.49-.9.105-.247.046-.47.098-.255.34-.71.316-.724.104-.418.23-.815.031-.488.034-.489.23-.638.15-.38.032-.313-.092-.611.119-.575.223-.827.065-.587-.059-.443v-.346l-.164-.371.04-.274.118-.405.025-.502.073-.45-.02-.854-.223-.658.06-.397.091-.274-.014-.32-.077-.45v-.69l-.086-.444-.046-.476-.32-1.943-.125-.391-.347-.697-.033-.313V60.2l-.17-.528-.086-.607-.15-.378-.294-.398-.08-.274-.046-.3-.19-.332-.09-.423-.126-.405-.072-.274-.32-.371-.498-.894-.353-.697-.1-.423-.15-.196-.262-.268-.184-.339-.209-.306-.183-.339-.367-.509-.196-.325-1.042-1.044-.478-.743-.19-.333-.302-.221-.308-.391-.537-.333-.15-.195-.138-.216-.629-.417-.483-.215-.152-.195-.23-.463-.438-.437-1.028-.717-.656-.215-.177-.176-.234-.457-.341-.358-.067-.274.144-.56.145-.21.27-.254.463-1.447.224-.47.242-.28.47-1.102.165-.527.229-.47.256-.789.013-1.03.32-.378.15-.372.349-1.043.197-.502.091-.424.189-.515.098-.424-.032-.41.078-.45.106-.554.419-.971.13-.906.053-.47.072-.633.459-1.453.033-.483-.158-.541.158-.508.013-1.2.15-.541.014-1.904.084-.443-.007-1.206-.085-.443-.032-.49-.058-.462.012-.515.072-.437-.078-.443-.047-.476-.13-.568-.033-.489-.216-.482-.17-.698-.047-.645-.209-.658-.099-.437-.261-.6-.027-.665-.45-1.115-.394-.658-.131-.737-.19-.332-.164-.88-.117-.228-.427-.45-.288-.411-.328-1.057-.23-.469-.183-.17-.373-.15-.183-.162-.616-.952-.262-.261-.385-.313-.277-.254-.425-.085-.655-.391-.838-.208-.505-.196-.681-.007-.269.046-.694-.15-.346.006-.256.105-.636.404-.322.209-.45.064-.296.06-.76.463-.17.175-.242.457-.262.26-.472.222-.492.379-.38.143-.261.26-.228.3-.158.19-.197.502-.241.28-.4.124-.197.15-.459.58-.34.358-.943 1.5-.19.502-.104.417-.44.437-.157.359-.544 1.375-.17.177-.177.521-.184.339-.326.887-.244.456-.051.3-.033.489-.282.932-.334.71-.156.894-.132.384-.132.744-.203.664-.124.574-.046.47-.124.58-.04.652-.222.828-.06.456-.188.678-.073.626-.04.32.099.606-.059.293-.177.346-.066.632-.051.47-.046.469-.118.41.019.294.104.71-.104.757v.273l.066.476-.105.77-.15.548-.034.658-.078.45.013.515.092.45-.027.326-.046.267.073.443-.027.509-.078.45.105.606-.046.489.112.815-.139.202-.779.02-.275-.033-.557.15-.393-.098-.164-.19-.184-.358.204-.586.027-.496-.02-.854-.073-.45.013-.515.08-.443-.053-.3-.086-.248.268-.717.054-.469-.105-.424-.164-.535.02-.502.066-.286-.034-.3-.118-.894.072-.45-.038-.489-.151-.899-.085-.607.025-.9-.071-.442-.118-.405v-.528l-.08-.267-.096-.255.032-.299.058-.3-.031-.313-.217-.658-.111-.763.032-.737-.19-.677-.014-.673-.17-.534-.15-.887-.105-.247-.026-.665-.196-.679-.105-.24-.085-.614-.44-1.297-.065-.456-.183-.515-.098-.593-.42-.809-.052-.294-.026-.312-.131-.228-.223-.294-.197-.502-.065-.28-.243-.456-.32-.9-.315-.378-.262-.437-.117-.574-.341-.534-.138-.209-.294-.228-.177-.346-.092-.43-.216-.483-.623-.945-.602-.613-.34-.886-.184-.163-.314-.208-.27-.255-.294-.228-.137-.209-.275-.248-.334-.535-.19-.155-.616-.261-.452-.248-.504-.365-.269-.085-.511-.013-.21-.13-.32-.202-.473-.235-.307-.026-.484.163-.852.02-.701.169-.576.293-.55.144-.426.28-.492.372-.432.273-.268.248-.295.404-.596.45-.754.991-.655.913-.36.691-.51.873-.583 1.33-.262.437-.197.502-.124.58-.014.333-.104.241-.217.3-.34.874-.053.475-.209.483-.111.594-.014.332-.307.743-.06.626-.051.47-.067.456-.537 2.08.086.593-.007.521-.092.26-.059.398.066.47-.013.522-.138.554.243.756-.013 1.043.065.594-.098.69.111.548.183.691.04.482.104.378-.052.437.02.854.19 1.024.216.49.092.423.02.495.163.71.151.894.157.366.183.338.046.646.223.658.007.3-.06.28.06.268.425 1.493.184.515.118.58.281.41.138.73.032.32.131.222.177.17.105.247.013.509.433 1.127.196.848.577 1.343.163.358.053.404-.236.43-.616.431-.668.372-.412.287-.315.208-.622.6-.551.326-.222.124-1.041 1.05-.112.234-.183.163-.459.241-.432.261-.197.333-.13.215-.407.293-.229.118-.256.443-.3.567-.315.384-.453.418-.123.221-.125.575-.34.534-.184.332-.32.379-.29.41-.255.267-.406.985-.216.476-.262.267-.242.45-.223.652-.34.528-.152.365-.137.392-.269.606-.275.939-.078.267-.42.632-.222.99-.066.633-.281.932-.105.594-.02.502-.327 1.415-.007.332.164.547-.013.3-.288.757-.086.43.06.587-.027.326-.072.287.02.32.079.45.006 1.029.157.547v.333l-.124.542.084.365.257.97.202 1.363.197.855.013.325.42 1.324.3.926.38 1.003.309.568.3.913.08.274.353.514.183.339.223.3.124.398.053.293.262.43.34.366.038.061-.086.003.19.17.186.307.367.333.262.43.263.267.127.284.286.274.104.066.104.145.19.34.433.215.04.044.252.495.175.204.46.28.844.658.447.493.335.41.76.549.474.268.175.198.265.12.418.132.468.276.649.472.412.339.272.097.453.114.865.444.719.578.53.226.446.295 1.04.269.412.148.404.338.712.225.606.135.538.21.886.235.404.161.517.035 1.443.24.273.098.363.191.244.134.217.155.46.112.348-.027.3-.063.747.168.481.24.251-.049.573-.177.927-.007.775.155.377.184.649.091.341.05.83-.114.524.044.446.126.3-.007h.259l.71.035.502.05 1.083.225.732.007.412-.147.279-.106h.299l.907.409.328.034.44-.133.78-.149.65.099.663-.09 1.388-.29.948.169.294-.036 1.103-.401.69-.05 1.52-.345.538-.02.613-.135.677-.254.629-.112.71-.226.462-.282.753-.374 1.18-.31.424-.127.454-.303.572-.176.802-.5 1.012-.48.496-.247.278-.282.257-.12.266-.106.552-.38.412-.529.738-.571.398-.162.188-.184.308-.444.656-.655.32-.424.593-.528.398-.543.454-.289.152-.225.21-.537.09-.124.132-.12.079-.166.173-.237.314-.248.236-.468.148-.192.215-.313.281-.637.062-.067.216-.17.077-.106.096-.357.1-.09.445-.776.09-.294z"/>
        <path fill="#FEFEFE" d="M47.958 94.525l.043.227-.71.132-.412.123-.09.009-.309-.032-.07-.02-.852-.378.094.02h-.281l.082-.015-.266.101-.387.136-.08.013-.732-.011-.992-.205-.46-.046-.655-.031h-.238l-.282.006-.068-.008-.375-.11-.492-.04.05-.001-.779.105h-.063l-.32-.046-.61-.085-.068-.02-.354-.17.055.019-.727-.144.047.005-.871.006.066-.01-.56.17-.237.045-.076.015-.07-.035-.452-.222.051.019-.7-.156h.097l-.31.063-.328.026-.072-.006-.432-.104-.08-.036-.18-.129-.225-.122-.311-.164-.216-.08-1.334-.22-.485-.031-.07-.016-.352-.141-.858-.225-.47-.185-.59-.13-.668-.207-.079-.043-.379-.313.07.04-.366-.13-.976-.249-.07-.03-.381-.254-.498-.209-.055-.032-.675-.535.04.026-.812-.411.049.018-.447-.111-.256-.09-.07-.04-.375-.304-.59-.425-.439-.254.047.02-.418-.132-.248-.11-.079-.058-.164-.184.06.049-.467-.262-.714-.508-.044-.04-.306-.37-.39-.43-.77-.592-.433-.26-.056-.047-.164-.189-.03-.045-.237-.457.037.051-.173-.185-.328-.365.05.041-.357-.229-.27-.254-.05-.072-.16-.35-.158-.314-.366-.502.063.06-.35-.225-.282-.248-.045-.04-.02-.055-.215-.607-.426-.789.042.056-.378-.374-.222-.3-.039-.082-.125-.518-.157-.365.044.067-.426-.45-.05-.052-.01-.072-.043-.288-.156-.679-.28-.781-.242-.802-.116-.393-.475-1.499-.052-.469.013.055-.144-.385-.014-.077-.02-1.369.008.057-.23-.846-.039-.313v-.055l.053-.463v.052l-.048-.438.01-.84-.086-.613v-.067l.066-.424-.001.064-.078-.612v-.068l.125-.737-.003.052-.031-.55-.066-.599.005-.078.098-.41.016-.046.282-.593-.02.07.037-.267-.046-.952-.003-.059.026-.053.201-.402.334-1.239-.008.05.027-.658.012-.065.234-.68.23-.462-.017.045.261-1.008.164-.366.277-.616.308-.56-.023.058.106-.449.092-.26.022-.063.051-.041.181-.143.177-.169-.062.102.163-.553.257-.657.38-.67.027-.04.407-.462-.04.065.16-.393.303-.57.432-.789.036-.049.596-.619-.04.055.248-.482.137-.215.051-.056.387-.307-.042.043.452-.608.64-.782.414-.438.25-.28.047-.041.53-.34-.06.057.294-.398.038-.04.288-.24.067-.04.38-.143-.055.03.813-.588-.044.042.308-.378.036-.036.681-.54.083-.042.662-.18.242-.099-.077.051.354-.352.044-.035.217-.13.051-.03.06-.003.33-.012.322-.026-.107.035.216-.137-.085.096.112-.235.026-.042.15-.195.072-.062.322-.175.216-.137.124.195-.218-.076.045-.13.219.075h-.232v-.521l.013-.076.132-.372-.012.1-.027-.266-.012-.498-.04-.306.23-.03-.176.15-.078-.091.176-.15-.084.215-.285-.115-.217-.13-.05-.03-.03-.05-.318-.542-.282-.41-.032-.068-.039-.137-.008-.065.006-.528.006.055-.065-.281.225-.052-.163.163-.085-.084.163-.164-.105.206-.347-.176-.065-.05-.17-.182-.038-.04-.015-.053-.079-.273-.008-.076.013-.251.02-.293.008.078-.157-.547.022.051-.256-.443-.029-.087-.02-.157.002-.066.072-.43.229.038-.227.047-.026-.124.227-.047-.191.131-.158-.23-.124-.228-.024-.07-.046-.271-.146-.487-.195-.364-.152-.382-.236-.625-.014-.057-.065-.633.017.067-.314-.73-.018-.093.008-.667-.04-.313.026.08-.366-.677-.022-.057-.169-.731-.05-.461-.052-.293.021.064-.177-.346-.017-.044-.11-.404-.009-.061.002-.669-.04-.313.02.067-.217-.476-.02-.09-.01-.474-.082-.479-.013-.685.006.05-.137-.558-.282-1.115-.007-.052-.016-1.067.075-.426.013-.32.009.073-.157-.548-.008-.06-.017-1.584.07-.426.027-.468-.099-.775v-.06l.083-.593.02-1.017.01-.06.156-.54-.009.06.014-1.043.009-.06.3-1.038.06-.508.268-.938-.008.076-.013-.248v-.306l.018-.09.052-.123.034-.057.236-.287-.028.044.177-.353-.025.103v-.248l.018.09-.112-.27-.066-.215-.026-.084.038-.08.174-.37.204-.304.2-.33.405-.645.196.122-.227-.044.026-.137.228.044-.23.033-.02-.137.23-.033-.216.084-.15-.384-.02-.05.004-.054.014-.156.013-.061.144-.385.052-.08.347-.353-.03.038.323-.496.106-.241-.02.08.027-.496.017-.077.053-.124.047-.071.145-.145.426-.626-.03.065.156-.535.032-.067.072-.104.06-.059.105-.071.052-.027.214-.072.216-.13-.086.092.128-.246.136-.213.213-.342.157-.196.068-.057.556-.313-.074.067.167-.229.46-.468.332-.24 1.152-.6.088-.026.308-.026.08.007.53.144-.129.002.38-.117.05-.01.307-.026.082.008.282.078.061.027.426.267-.047-.023.256.09.531.169.064.032.742.533.505.498.879.698.045.036.023.053.24.56.208.302.214.277.346.363.327.366.041.065.156.377.137.39-.05-.082.268.283.465.58.04.076.165.535-.035-.07.209.284.491.554.047.082.092.286.177.868-.027-.07.4.687.188.463.21.353.157.359.018.063.098.776-.025-.078.479.913.018.047.173.656.308.743.018.077.03.635.052.294-.028-.076.204.354.216.532.121.61.046.474.033.313-.018-.068.268.612.017.06.04.28-.002.073-.075.4.007.522-.01-.064.21.694.298 1.817.02.802.223.96.003.082-.059.437-.003-.078.42 2.014.003.076-.053.411-.23-.03.222-.066.04.131-.222.066.2-.117.196.333.029.049.003.057.006.137-.012.084-.223.659.01-.046-.038.32v-.062l.045.306-.023-.07.177.345.022.066.053.306.001.067-.04.314-.059.47v-.064l.094.643-.008.667.098.782v.06l-.083.581-.002.54-.065.594-.003-.069.056.315.005.673.053.436-.001.065-.145.868v-.077l.082.496v.306l-.01.067-.197.639.01-.088.052.58-.015-.064.098.248.013.048.072.443-.228.037.215-.086.052.13-.215.086.138-.185.326.243.407.404.584.402.242.105-.084-.019.518.02-.047.003.458-.079.055-.003.261.02.703-.03.44-.078h.082l.702.128.772.058.707-.052.017.23-.103-.206.119-.059.103.207-.184-.14.15-.196-.034.062.092-.254-.012.11-.058-.404.007-.097.038-.13.021-.05.132-.229-.022.05.08-.273-.01.074-.013-.326.014.07-.235-.64-.014-.064-.02-.326.004-.06.092-.45-.002.08-.092-.6V37.2l.076-.417.02-.678.006.058-.262-1.14-.006-.061.013-.32.022-.088.058-.124.03-.047.158-.195.18.144-.23-.024.012-.118.23.025-.204.108-.124-.234-.111-.241-.02-.087-.02-.509.004-.053.059-.294.022-.062.284-.532.08-.267-.005.115-.128-.585-.151-1.083v-.07l.053-.307.034-.086.138-.215-.027.059.163-.541-.01.056.015-.32.006.064-.23-.965-.003-.093.078-.435.232-.802.098-.43-.003.087-.073-.467-.027-.326.006-.076.255-.999.185-.514-.014.073.013-.678.01-.066.17-.529-.01.07.004-.736.06-.293.024-.065.308-.561-.023.058.065-.28-.006.049.02-1.2.009-.06.157-.541.047-.087.244-.28-.029.041.121-.224.236-.462-.02.052.225-.955.049-.49.093-.473.131-.391.053-.087.17-.176.168.16-.214-.09.052-.123.213.09-.228-.041.076-.405.006-.86.013-.075.046-.13.025-.07.06-.043.294-.203.188-.157.149.177-.211-.095.053-.117.21.095-.227-.043.114-.595.142-.606.157-.371.042-.066.243-.267-.033.047.205-.379.151-.195.06-.053.319-.203.124.195-.18-.145.079-.098.18.145-.222-.064.039-.137.223.064-.232-.009.013-.332.016-.077.1-.247.046-.073.34-.359-.04.058.23-.47.038-.056.335-.359-.043.067.156-.365.03-.05.15-.195.037-.039.377-.305.338-.3.301-.399.044-.044.394-.3-.052.055.353-.522.046-.05.578-.47.05-.03.45-.2.216-.137-.074.076.26-.43.049-.057.19-.163.057-.035.72-.32-.07.048.2-.196.195-.15.091-.042.44-.098.073-.004.452.046-.08.006.367-.093.406-.091.052-.012.052.012.252.059.845.21.07.03.444.287.484.384-.057-.033.498.202.077.05.262.26.05.076.203.49-.214.087.163-.163.092.091-.164.163.101-.207.266.133.204.15.045.033.025.05.346.697-.035-.051.352.395.202.32.025.053.086.267.01.073-.007.497.038.306-.035-.096.753 1.16.024.05.103.304.078.575.08.274-.02-.048.497.892.026.08.066.456-.019-.063.116.253.209.54.144.71.002.076-.03.214.005.3-.012-.07.4 1.18.012.074v.489l-.01.066-.163.541-.222-.066.231-.02.013.15-.23.02.214-.087.11.268.13.391.012.067.013.49.051.464.073.704.005.054-.019.05-.144.385.014-.054-.027.234-.029-.14.19.333.023.057.106.418.007.05.013.49.039.507v.321l-.049.062-.21.266-.132.228.03-.115v.274h-.231l.21-.095.071.159.163.535.01.06.014.502-.01.075-.119.372-.045.287-.003-.087.071.328.02.502-.003.053-.082.401-.01 1.246-.053.293-.023.067-.242.456.024-.07-.083.489-.136.385.012-.05-.072.618-.047.522-.072.274-.023.056-.255.443.03-.1-.021.28.068.507v.341l-.03.053-.38.671.029-.089-.067.634-.054.478-.052.293-.022.066-.344.65-.111.364-.091.646-.12.41-.02.049-.248.443.023-.06-.125.517-.015.352-.04.313-.009.073-.05.055-.084.091-.067.05-.237.118.057-.04-.177.169.052-.075-.21.483.018-.066-.06.508-.156.54-.02.048-.325.586-.373.503.025-.043-.11.247.02-.09-.007.32-.007-.058.072.293.006.05.007.305.001.068-.036.058-.137.222-.058.063-.377.282-.177.17.063-.108-.073.275-.11.41-.02.05-.182.341-.118.229.025-.121.02.303v.26l-.038.699-.092.443-.226-.046.23-.022.014.143-.23.022.213-.09.052.125-.213.09.163-.164.177.176.043.058.177.346-.207.105.17-.158.085.091-.17.158.13-.192.796.532.498.203.063.038.374.32-.075-.043.394.136.055.029.104.072.057.038.026.063.151.365-.214.088.17-.156.085.091-.17.157.104-.206.371.19.315.208.058.055.222.3-.186.137.123-.195.104.065-.123.195.052-.225.465.108.25.098.062.024.04.053.203.279.52.544.72.848-.037-.036.498.372.06.068.121.205.223.316.405.64-.031-.04.702.705.334.364.045.074.19.503-.051-.081.7.703.34.365.049.084.094.29.124.747.053.3-.037-.09.138.202-.06-.06.238.167.177.17.046.062.155.316.241.323.125.228.025.073.1.618.028.502-.01-.053.077.257.113.367.23.476-.034-.05.262.307.203.32.031.073.124.554.004.07-.051.58-.004-.064.06.3-.047-.1.252.321.123.229.023.062.235 1.124.233.65.078.26.02.069-.022.068-.075.225-.033.215-.23-.035.23-.036.216 1.35.001.062-.053.463v-.049l.04.397-.002.066-.053.28.002-.078.058.387.17.562.045.228.002.078-.11.763-.184.69.007-.05-.014.357-.086.6-.004-.086.17.711.006.063-.013.32-.01.06-.083.26-.158.536.01-.06-.02.855-.01.065-.204.638.009-.1.035.28-.007.503-.009.06-.453 1.6-.065.455-.013.05-.098.255-.05.077-.34.353.04-.055-.22.422-.202.686-.485 1.302-.373.68-.038.05-.341.346.03-.04-.203.325.027-.061-.223.815-.035.074-.071.099-.047.048-.175.13-.249.267.04-.058-.285.599-.353.69-.064.078-.296.23.044-.045-.444.598.029-.052-.198.496-.024.045-.142.208-.068.066-.427.267.063-.058-.373.502-.033.036-.526.456-.323.415-.588.574-.318.445-.177.17-.074.048-.374.15.055-.032-.694.529.041-.04-.387.488-.051.048-.517.352-.046.024-.237.092-.242.111.067-.046-.261.26-.062.045-.47.23-.927.431-.752.463-.054.024-.537.164.06-.028-.427.28-.062.028-.406.119-1.108.287.044-.016-.689.335-.433.261-.05.023-.697.216-.55.093-.667.244-.616.13-.462.013-1.462.324-.648.046.062-.013-1.036.371-.05.012-.276.033-.068-.001-.89-.157.086-.001-1.32.27-.622.084h-.065l-.61-.092.035-.228z"/>
        <g fill="#231F20">
            <path d="M39.173 83.11l-.209.15-.387.306-.176.346-.073.45.04.137.229.299.144.378.144.21.138.214-.02.124-.085.084-.314.04-.276.078-.196.15-.236.287-.15.385v.279l.058.125.42.45.386.143.335.02.3-.06.465-.227.289-.066.425.066.125-.033.543-.333.295-.051.478-.053.295-.025.125.058.176.17.203.143.288.058.283.08.313.37.23.124.799.235.891-.06.53-.338.164-.189.033-.143-.007-.15-.11-.248-.342-.359-.648-.397-.17-.177-.04-.143.033-.313.17-.181.25-.099.23-.124.424-.45.073-.234-.027-.262-.078-.273-.19-.156-.649-.229-.302-.02-.366.171-.53.169-.747.47-.59.11-.209.144-.125.045-.137.006-.137-.039-.302-.227-1.205-.71-.256-.276-.524-.344-.235-.118-.138-.006zM57.802 72.972l-.445.255-.301.39-.225.482-.162.704.143.9.407.646.21.137.753.28.714-.097.243-.105.398-.3.15-.195.08-.267.23-.47.084-.274-.013-.15-.13-.222-.105-.242-.008-.513-.038-.314-.158-.189-.478-.22-.242-.282-.138-.032h-.7zM25.333 71.427l-.36.163-.387.137-.098.078-.445.769-.053.476-.124.39.006.119.184.325.19.515.334.53.183.168.275.071.89.164.138-.038.289-.249.327-.189.164-.182.15-.371.165-.367.078-.267-.086-.6-.045-.475-.157-.365-.36-.34-.138-.214-.164-.183-.275-.078z"/>
        </g>
    </g>
</svg>
