<?xml version="1.0" encoding="UTF-8" standalone="no"?>
<svg width="43px" height="42px" viewBox="0 0 43 42" version="1.1" xmlns="http://www.w3.org/2000/svg" xmlns:xlink="http://www.w3.org/1999/xlink">
    <g id="Portrait" stroke="none" stroke-width="1" fill="none" fill-rule="evenodd">
        <g id="Homepage" transform="translate(-426.000000, -871.000000)">
            <g id="Group" transform="translate(-129.000000, 719.000000)">
                <g id="playbutton" transform="translate(555.000000, 152.000000)">
                    <g id="Group-3" fill="#ffffff">
                        <path d="M42.6036833,20.995015 C42.6036833,30.9635383 35.1977296,39.802772 25.2515907,41.6464542 C15.2624519,43.4979869 5.06587778,37.9194449 1.39933148,28.5695383 C-2.27637222,19.1949028 1.50683148,8.27725794 10.196813,3.04649159 C18.9047111,-2.1948729 30.4991833,-0.450499065 37.2533685,7.07181869 C40.6858037,10.8938187 42.6036833,15.8906411 42.6036833,20.995015" id="Fill-1"></path>
                    </g>
                    <path d="M18,31.9215318 C18.0595198,31.9463112 18.1227596,31.9752206 18.1897193,32 C18.3943186,31.9463112 18.5877579,31.8471935 18.7811972,31.7315562 C18.9188367,31.8017646 19.0601961,31.8595833 19.2015556,31.9215318 C19.5400744,31.525061 19.9529929,31.2483574 20.2654718,30.8105876 C20.5779506,30.3728177 20.9462293,29.9804768 21.2735881,29.5592266 C21.3219479,29.497278 21.3740277,29.4353295 21.4261075,29.3733809 C21.7646263,28.98104 22.1701048,28.7084663 22.4825837,28.2706965 C22.7950626,27.8329266 23.1596212,27.4447156 23.4907,27.0193355 C23.5353399,26.9573869 23.5874197,26.8954383 23.6357795,26.8376197 C23.9780183,26.4452788 24.3834968,26.1685752 24.6959757,25.7349352 C25.0084545,25.2930355 25.3767332,24.9089544 25.704092,24.4794443 C25.7487318,24.4174958 25.8008116,24.363807 25.8491715,24.3059884 C26.1839702,23.9095176 26.5968887,23.632814 26.9093676,23.1950441 C27.2218465,22.7572743 27.5901251,22.3690633 27.9174839,21.9436831 C27.9695637,21.8734748 28.0216436,21.8073963 28.0811633,21.7454477 L28.0774434,21.7413178 C28.1220832,21.7165384 28.166723,21.6876291 28.2113629,21.6545898 C28.4085222,21.3654965 28.8735205,20.9731556 29,20.655153 C28.6577612,20.2586822 28.4271221,19.7878731 28.0439635,19.4161817 C27.6608049,19.0486202 27.3260061,18.6191102 26.9577274,18.239159 C26.9019276,18.1813403 26.8498478,18.1235217 26.801488,18.0615731 C26.4592492,17.6651023 26.2286101,17.1984231 25.8491715,16.8308616 C25.4660129,16.4633002 25.1312141,16.0337901 24.7592154,15.649709 C24.7071356,15.5960203 24.6550558,15.5382016 24.606696,15.4762531 C24.2644572,15.0797822 24.0338181,14.6089732 23.6506595,14.2455416 C23.2675008,13.8738502 22.9327021,13.4484701 22.5607034,13.0602591 C22.5086236,13.0065703 22.4602638,12.9487516 22.411904,12.890933 C22.0659452,12.4944622 21.839026,12.0236531 21.4558674,11.6560916 C21.0689888,11.2844002 20.7341901,10.8590201 20.3659114,10.474939 C20.3063916,10.4129904 20.2468718,10.3510419 20.194792,10.2849634 C20.0236726,10.2354045 19.9046331,10.1817158 19.7074738,10.0454289 C19.6925938,10.0330392 19.6777139,10.0247794 19.662834,10.0165196 C19.644234,10.0495589 19.6256341,10.0825981 19.5958742,10.1156373 C19.5623943,10.1486766 19.5326344,10.1817158 19.4991545,10.2106251 C19.4954346,10.1858457 19.4917146,10.1569364 19.4879946,10.128027 C19.4842746,10.0949878 19.4768346,10.0702084 19.4731146,10.0454289 C19.4396348,10.0578187 19.4061549,10.0702084 19.365235,10.0702084 C19.0862361,10.0619486 18.9374366,10.041299 18.7625972,10 C18.6695976,10.2271447 18.5989178,10.4997184 18.5803179,10.7640323 C18.5765979,10.86315 18.557998,10.9540079 18.5319581,11.0283462 C18.5319581,11.3669983 18.5245181,11.7056505 18.5282381,12.0484325 C18.6695976,12.6885677 18.4147785,13.5269382 18.3887386,14.2042425 C18.3664187,14.7700394 18.2492391,15.3358363 18.2492391,15.8975033 L18.2492391,15.909893 C18.2492391,16.0090107 18.3217788,16.0957387 18.2957389,16.170077 C18.288299,16.5087291 18.3359148,16.8515112 18.3359148,17.1901633 C18.4809943,17.8344284 18.3407508,18.6727989 18.3147109,19.3459733 C18.2961109,19.9035104 18.2968549,20.4610475 18.2894149,21.0144547 C18.2894149,21.0268444 18.287927,21.0392341 18.287927,21.0516238 C18.280487,21.1507415 18.264863,21.2374695 18.2425431,21.3118078 C18.2388231,21.6545898 18.2365911,21.9973719 18.2365911,22.3318941 C18.3816706,22.9761592 18.2187352,23.8186597 18.1926953,24.4918341 C18.1703754,25.0452412 18.1633074,25.5986484 18.1558674,26.1561855 C18.1558674,26.1685752 18.1487995,26.1850948 18.1487995,26.1933546 C18.1413595,26.2966022 18.1264795,26.3833302 18.1004396,26.4576685 C18.0967196,26.8004505 18.0967196,27.1391027 18.0967196,27.4777548 C18.2380791,28.11789 18.0743997,28.9603905 18.0520798,29.6335649 C18.0185999,30.3975971 18.00744,31.1616294 18,31.9215318" id="Fill-4" fill="#1D1C1B"></path>
                </g>
            </g>
        </g>
    </g>
</svg>
